<?xml version="1.0" encoding="UTF-8" standalone="no"?>
<!-- Generator: Adobe Illustrator 22.0.1, SVG Export Plug-In . SVG Version: 6.00 Build 0)  -->

<svg
   xmlns:dc="http://purl.org/dc/elements/1.1/"
   xmlns:cc="http://creativecommons.org/ns#"
   xmlns:rdf="http://www.w3.org/1999/02/22-rdf-syntax-ns#"
   xmlns:svg="http://www.w3.org/2000/svg"
   xmlns="http://www.w3.org/2000/svg"
   xmlns:sodipodi="http://sodipodi.sourceforge.net/DTD/sodipodi-0.dtd"
   xmlns:inkscape="http://www.inkscape.org/namespaces/inkscape"
   version="1.1"
   id="Capa_1"
   x="0px"
   y="0px"
   viewBox="0 0 431.8 431.8"
   style="enable-background:new 0 0 431.8 431.8;"
   xml:space="preserve"
   sodipodi:docname="car.svg"
   inkscape:version="0.92.4 (5da689c313, 2019-01-14)"><metadata
   id="metadata11"><rdf:RDF><cc:Work
       rdf:about=""><dc:format>image/svg+xml</dc:format><dc:type
         rdf:resource="http://purl.org/dc/dcmitype/StillImage" /></cc:Work></rdf:RDF></metadata><defs
   id="defs9" /><sodipodi:namedview
   pagecolor="#ffffff"
   bordercolor="#666666"
   borderopacity="1"
   objecttolerance="10"
   gridtolerance="10"
   guidetolerance="10"
   inkscape:pageopacity="0"
   inkscape:pageshadow="2"
   inkscape:window-width="1366"
   inkscape:window-height="715"
   id="namedview7"
   showgrid="false"
   inkscape:zoom="0.54654934"
   inkscape:cx="215.89999"
   inkscape:cy="215.89999"
   inkscape:window-x="-8"
   inkscape:window-y="-8"
   inkscape:window-maximized="1"
   inkscape:current-layer="Capa_1" />
<g
   id="g4"
   style="fill:#ffffff;stroke:#ffffff">
	<path
   d="M409.5,222.2c0-7.4-1.7-14.5-4.9-21.1c-0.3-1.7-0.7-3.3-1.2-5l-34.2-81.4L369,114c-12-34.2-29-65.9-72.1-65.9H132   c-44.2,0-59.8,32.5-72,65.7l-35.7,81.6c-5.2,8-8.1,17.1-8.1,26.8v25.3c0,3.9,0.5,7.8,1.4,11.4c-0.9,2.2-1.4,4.6-1.4,7.2v75.4   c0,11.1,9.3,20,20.8,20h43.2c11.5,0,20.8-9,20.8-20v-37.7h226.2v37.7c0,11.1,9.3,20,20.8,20h40.7c11.5,0,20.8-9,20.8-20v-75.4   c0-2.5-0.5-4.9-1.4-7.2c0.9-3.7,1.4-7.5,1.4-11.4L409.5,222.2L409.5,222.2L409.5,222.2z M85.3,122C99,85.1,109.9,73.8,132,73.8   h164.9c22,0,34.2,12.6,46.6,48l24.9,48.6c-8.1-2.9-17.1-4.5-26.5-4.5H83.7c-8.5,0-16.6,1.3-24,3.7L85.3,122z M106.8,257.2H61.2   c-8.2,0-14.9-6.4-14.9-14.3c0-7.9,6.7-14.3,14.9-14.3h45.6c8.2,0,14.9,6.4,14.9,14.3C121.6,250.8,115,257.2,106.8,257.2z    M267.7,254.3h-106c-5.2,0-9.4-4.1-9.4-9c0-5,4.2-9.1,9.4-9.1h106c5.2,0,9.4,4,9.4,9.1C277.1,250.3,272.9,254.3,267.7,254.3z    M363.3,257.2h-45.6c-8.2,0-14.9-6.4-14.9-14.3c0-7.9,6.7-14.3,14.9-14.3h45.6c8.2,0,14.9,6.4,14.9,14.3   C378.1,250.8,371.5,257.2,363.3,257.2z"
   id="path2"
   style="fill:#ffffff;stroke:#ffffff" />
</g>
</svg>