<?xml version="1.0" encoding="UTF-8" standalone="no"?>
<!-- Generator: Adobe Illustrator 22.0.1, SVG Export Plug-In . SVG Version: 6.00 Build 0)  -->

<svg
   xmlns:dc="http://purl.org/dc/elements/1.1/"
   xmlns:cc="http://creativecommons.org/ns#"
   xmlns:rdf="http://www.w3.org/1999/02/22-rdf-syntax-ns#"
   xmlns:svg="http://www.w3.org/2000/svg"
   xmlns="http://www.w3.org/2000/svg"
   xmlns:sodipodi="http://sodipodi.sourceforge.net/DTD/sodipodi-0.dtd"
   xmlns:inkscape="http://www.inkscape.org/namespaces/inkscape"
   version="1.1"
   id="Layer_1"
   x="0px"
   y="0px"
   viewBox="0 0 410.90009 539.03125"
   xml:space="preserve"
   sodipodi:docname="gas.svg"
   inkscape:version="0.92.4 (5da689c313, 2019-01-14)"
   width="410.90009"
   height="539.03125"><metadata
   id="metadata13"><rdf:RDF><cc:Work
       rdf:about=""><dc:format>image/svg+xml</dc:format><dc:type
         rdf:resource="http://purl.org/dc/dcmitype/StillImage" /><dc:title></dc:title></cc:Work></rdf:RDF></metadata><defs
   id="defs11" /><sodipodi:namedview
   pagecolor="#ffffff"
   bordercolor="#666666"
   borderopacity="1"
   objecttolerance="10"
   gridtolerance="10"
   guidetolerance="10"
   inkscape:pageopacity="0"
   inkscape:pageshadow="2"
   inkscape:window-width="640"
   inkscape:window-height="480"
   id="namedview9"
   showgrid="false"
   inkscape:zoom="0.4609375"
   inkscape:cx="205.40008"
   inkscape:cy="270.5"
   inkscape:window-x="0"
   inkscape:window-y="0"
   inkscape:window-maximized="0"
   inkscape:current-layer="Layer_1"
   fit-margin-top="0"
   fit-margin-left="0"
   fit-margin-right="0"
   fit-margin-bottom="0" />
<g
   id="g6"
   style="fill:#ffffff;stroke:#ffffff"
   transform="translate(-50.599919,12.531267)">
	<g
   id="g4"
   style="fill:#ffffff;stroke:#ffffff">
		<path
   d="M 460.2,308.3 459.8,303 C 453.5,222.8 415.6,172.5 382.1,128.1 351.1,87 324.3,51.5 324.3,-0.8 c 0,-4.2 -2.4,-8 -6.2,-10 -3.8,-1.9 -8.4,-1.6 -11.8,0.9 -50.3,35.4 -92.2,95.1 -106.9,152.1 -10.2,39.7 -11.5,84.2 -11.7,113.7 -46.4,-9.8 -57,-78.1 -57.1,-78.9 -0.5,-3.5 -2.7,-6.6 -5.9,-8.3 -3.2,-1.7 -7,-1.8 -10.3,-0.2 -2.4,1.2 -59.8,29.8 -63.1,144.4 -0.2,3.8 -0.2,7.6 -0.2,11.4 C 51,435.5 143,526 256,526 c 113,0 205,-90.5 205,-201.7 0,-5.6 -0.4,-10.8 -0.8,-16 z M 256,503.6 c -37.7,0 -68.3,-32.1 -68.3,-71.6 0,-1.3 0,-2.7 0.1,-4.4 0.5,-16.7 3.7,-28 7.2,-35.6 6.6,14 18.4,26.8 37.6,26.8 6.3,0 11.4,-5 11.4,-11.2 0,-16 0.3,-34.4 4.4,-51 3.6,-14.7 12.2,-30.4 23.1,-43 4.8,16.3 14.3,29.5 23.5,42.4 13.2,18.4 26.8,37.5 29.2,70 0.1,1.9 0.3,3.9 0.3,5.9 -0.2,39.6 -30.8,71.7 -68.5,71.7 z M 328,489 c 11.8,-15.9 19.1,-35.5 19.1,-57 0,-2.6 -0.2,-5.1 -0.5,-9.7 -2.7,-36.6 -18.9,-59.2 -33.1,-79.2 -12.2,-17 -22.6,-31.7 -22.6,-52.5 0,-4.3 -2.4,-8.1 -6.3,-10 -3.8,-1.9 -8.5,-1.5 -11.9,1.1 -21.8,16.2 -40.1,43.6 -46.4,69.7 -3.2,13.4 -4.4,27.9 -4.8,39.8 -7.9,-8.4 -10.3,-23.9 -10.4,-24.1 -0.5,-3.6 -2.8,-6.7 -6,-8.4 -3.3,-1.7 -7.2,-1.7 -10.4,0 -2.9,1.4 -28.1,15.7 -29.5,68 -0.1,1.8 -0.1,3.5 -0.1,5.3 0,21.5 7.3,41.1 19.1,57 C 119.4,461.5 74,398 74,324.3 c 0,-3.4 0,-6.7 0.2,-10.4 2,-67.2 23.8,-100.5 38.1,-115.2 9.9,35 36,80.8 87,80.8 6.3,0 11.4,-5 11.4,-11.2 0,-37.5 0.9,-80.9 11,-120.5 11.6,-45 43.3,-93.5 81.5,-126.4 6.4,48 32.9,83.2 60.8,120.2 33.2,44 67.5,89.5 73.3,163.1 l 0.4,5.4 c 0.4,4.7 0.7,9.3 0.7,14.3 C 438.2,398 392.8,461.4 328,489 Z"
   id="path2"
   style="fill:#ffffff;stroke:#ffffff"
   inkscape:connector-curvature="0" />
	</g>
</g>
</svg>