<?xml version="1.0" encoding="utf-8"?>
<!-- Generator: Adobe Illustrator 22.0.1, SVG Export Plug-In . SVG Version: 6.00 Build 0)  -->
<svg version="1.1" id="svg8" xmlns="http://www.w3.org/2000/svg" xmlns:xlink="http://www.w3.org/1999/xlink" x="0px" y="0px"
	 viewBox="0 0 801 256" style="enable-background:new 0 0 801 256;" xml:space="preserve">
<style type="text/css">
	.st0{fill:#995F30;}
	.st1{fill:#FFFFFF;}
	.st2{fill:#356D00;}
	.st3{fill:#FF5B00;}
	.st4{fill:#FE7F18;}
</style>
<g>
	<polygon class="st0" points="136.3,58.4 117.6,58.4 119.8,90.3 135.3,91.7 	"/>
	<polygon class="st0" points="113.4,56.4 139.8,57 141,47.1 112.7,45.4 	"/>
</g>
<g>
	<path class="st1" d="M130.4,71.1c-1.3-0.4-2.8-0.3-4.1-0.2c-2.5,0.1-5.3,0-7.8-0.1l0.3,3.7h11.9L130.4,71.1z"/>
	<path class="st1" d="M131.9,69.1c-1.1,0.3-2.3,0.2-3.5,0.2c-2.5-0.1-5,0-7.4,0.1v-3.1l11.5-0.2L131.9,69.1z"/>
	<path class="st1" d="M117.8,61.6l0.2,3.2l7.5-0.1l-0.2-3.1c-2.5,0.1-4.7,0.1-7.2,0.1C117.9,61.6,117.8,61.6,117.8,61.6"/>
</g>
<path id="path28_1_" inkscape:connector-curvature="0" class="st2" d="M125.1,203.7c0-40.4,3.7-75.3-10.8-107.2
	c18.1-15.1,35.4-31,51.7-47.9c18.2,17.6,36.4,34.5,54.6,47.9c-14.7,28.6-12,65.3-13,108.4L125.1,203.7z"/>
<path class="st3" d="M240.7,109.8c-4.3-3.1-9.5-7-15.5-11.3c0,0-2.9-2.2-7.3-5.7c-7.9-6.3-25.6-24-47.6-48.7c-0.9-1-1.8-2-2.6-3.1
	c0,0,0,0,0,0c-0.1-0.1-0.1-0.1-0.2-0.2c-0.7-0.9-2-0.9-2.7,0c-23.4,26.7-42.1,45.7-49.9,52c-4.3,3.5-7.2,5.7-7.2,5.7
	c-6,4.3-11.2,8.1-15.4,11.3c-5.2,3.9-7.7,5.7-7.4,6.2c0.3,0.6,3.7-0.7,10-3.8c4.2-2.1,9.1-5.5,15.1-9.3
	c16.4,26.7,10.8,64.9,12.5,101.2c1.7,0,3.4,0.1,5.1,0.1c-0.8-19.1,0.6-34.2,1-52c0.4-19.4-6-41.4-11.6-54.2
	c16.5-15.5,32.9-31,49.4-46.5c15.9,14.9,31.7,29.8,47.6,44.7c0.5,0.4,1,0.9,1.5,1.4c0.1,0.1,0.2,0.2,0.4,0.3c0,0,0,0,0,0
	c2.3,2.6,3.8,6,4.4,9.5c0.9-1.6,1.8-3.1,2.7-4.6c6.1,3.8,11,7.2,15.2,9.3c6.4,3.2,9.7,4.4,10,3.8
	C248.4,115.5,245.9,113.7,240.7,109.8z"/>
<path class="st1" d="M153,147.4l0.7,28.6c2.3,2.1,3.3,5.4,3,8.6c0.3,0.9,0.4,1.8,0.4,2.7v0.3c0,1.5-0.3,2.8-0.9,4.1
	c0.2,1.4,0.1,2.7-0.2,4.1c0.2,0.2,1,1,1.1,2.2c0.2,1.6-0.7,2.7-0.8,2.9c3.8-0.2,7.7-0.3,11.8-0.2c3.3,0,6.6,0.1,9.7,0.2
	c0.7,0.1,1.4,0.1,2.1,0.2c0.6-17.3,1.3-34.6,1.9-51.9L153,147.4z"/>
<polygon class="st0" points="169.7,181.7 169.7,150.3 179.5,151.2 178.4,181.7 "/>
<path class="st0" d="M177.1,200.8l1.2-24.1h-8.6c0,8,0,16,0,24c1.2,0,2.4-0.1,3.7,0C174.6,200.7,175.9,200.7,177.1,200.8z"/>
<polygon class="st0" points="155.7,181.7 155.2,149 166.5,150 166.5,181.7 "/>
<path class="st0" d="M166.5,200.6c0-8,0-16,0-23.9h-10.7c0.1,8.1,0.2,16.1,0.3,24.2c1.6,0,3.3-0.1,4.9-0.1
	C162.9,200.7,164.7,200.6,166.5,200.6z"/>
<g>
	<path class="st1" d="M181.9,156.8c-2.9-2.4-7.6-5.2-13.9-5.6c-7-0.4-12.4,2.7-15,4.6l-2.5-4.7c3-2.2,9.4-5.8,17.7-5.4
		c7.5,0.4,13,3.8,16.4,6.6L181.9,156.8z"/>
</g>
<g>
	<path class="st3" d="M181.8,154.7c-3-2.1-8-4.7-14.7-5c-7.4-0.3-13.1,2.4-15.8,4.1l-2.6-4.2c3.2-2,9.9-5.3,18.7-4.9
		c7.9,0.4,13.8,3.4,17.3,6L181.8,154.7z"/>
</g>
<g>
	<path class="st1" d="M155.7,177.4c0.8,5.5,1.5,13.5,0.7,23.5c0.8,0,1.6-0.1,2.3-0.1c0.2-1.2,0.4-3.2,0.6-5.6
		c0.5-6,0.6-12.1,0.4-18.2c-0.3-6.1-1-12.2-2.1-18.2c-0.4-2.2-0.9-4.4-1.4-6.6c-0.5,0.2-0.9,0.4-1.4,0.6c-1.7,0.7-3.3,1.5-4.7,2.4
		c0.6,1.7,1.2,3.4,1.7,5.1C154.4,169,155.5,176,155.7,177.4z"/>
</g>
<g>
	<path class="st1" d="M179.6,174.9c-3-0.9-6.7-1.6-11.1-1.7c-5.1-0.2-9.4,0.5-12.7,1.4c0.3,1,0.5,2.1,0.5,3.2
		c2.9-0.8,7.1-1.6,12-1.5c4.8,0.1,8.6,1.1,11.5,2.1C179.6,177.2,179.5,176,179.6,174.9z"/>
</g>
<g>
	<path class="st1" d="M178.4,153.5l-0.4,4.7c-0.4,5.4-0.6,10.8-0.8,16.2c-0.2,8.7-0.2,17.3,0.1,25.9c0.3,0,0.5,0,0.8,0
		c0.7-8.6,1.7-17.1,3-25.5c0.8-5.3,1.6-10.6,2.7-15.8l0.8-3.7c-0.3-0.1-0.6-0.1-0.9-0.2C181.5,155.1,179.8,154.4,178.4,153.5z"/>
</g>
<g>
	<path class="st3" d="M153.7,177.4c0.7,5.5,0.8,10,0.9,17.5c0,3.2,0,5.8,0,7.7c0.9-0.3,1.8-0.7,2.7-1c0-1.5,0-3.7,0.1-6.3
		c0.2-12.4,0.2-13.4,0-18.1c-0.3-6.1-0.7-12.3-1.8-18.3c-0.9-4.8-2.1-9.6-3.5-14.4c-0.6-1.9-2.6-2.9-4.5-2.2l-0.8,0.3
		c-1.8,0.7-2.6,2.7-1.9,4.4c1.8,4.3,3.5,8.7,4.8,13.2C151.2,165.2,152.6,169.1,153.7,177.4z"/>
</g>
<g>
	<path class="st3" d="M185.8,144.1c1.7,0.3,2.9,2.2,2.5,4l-2.5,11.9c-0.5,2.6-1,5.1-1.4,7.7c0,0-0.7,4-1.2,7.7
		c-1.5,10.1-2.4,24.8-2.5,25.9c-0.6,0-1.3,0-1.9,0c0-8.5,0.2-17.3,0.5-26.3c0.2-5.4,0.5-10.7,0.8-15.9l1-12.3c0.2-1.9,1.8-3.3,3.6-3
		L185.8,144.1z"/>
</g>
<path class="st1" d="M160.9,180.7c0,1.1,0.9,2,2,2c1.1,0,2-0.9,2-2s-0.9-2-2-2C161.8,178.7,160.9,179.6,160.9,180.7z"/>
<path id="path82_1_" inkscape:connector-curvature="0" class="st1" d="M157.9,124.4c0-10.9-2.2-21.3-5.5-31.3
	c9.6-2.6,19-2.4,28.2,0.7c-3.1,8.8-5,18.8-5.4,30.4L157.9,124.4z"/>
<g>
	<path id="path84_1_" inkscape:connector-curvature="0" class="st3" d="M156.3,94c6.3-2.2,14.6-2.2,20.4,0c3.3,1.1,4.3,3.4,5.7,1.8
		c1.5-1.9,0-2.8-1.9-3.5c-10.6-3.9-17.3-4-27.8,0c-1.7,0.9-3.2,1.2-2.1,3.3C151.9,97.4,153,95,156.3,94z"/>
	<path id="path86_1_" inkscape:connector-curvature="0" class="st3" d="M157.2,123.7c-1.5-12.8-4.3-24.8-9-32.6
		c-0.6-1.3,1-2,1.5-2.4c0.8-0.3,2.5-0.8,3,0.3c4.2,12.3,5.3,23.8,5.8,34.3C158.7,125,157.8,125.5,157.2,123.7L157.2,123.7z"/>
	<path id="path88_1_" inkscape:connector-curvature="0" class="st3" d="M175.7,123.7c1.5-12.8,4.4-24.8,9.1-32.6
		c0.6-1.3-1-2-1.5-2.4c-0.8-0.3-2.6-0.8-3.1,0.3c-4.2,12.3-5.4,23.8-5.8,34.3C174.1,125,175.1,125.5,175.7,123.7L175.7,123.7z"/>
	<path id="path90_1_" inkscape:connector-curvature="0" class="st3" d="M156,123.5c7.4-0.5,14.6-1,21.4-0.3c2.3,0,2.2,3.6,0,3.6
		c-6.6-0.3-13.9-0.3-21.5,0C152.8,127.2,152.8,123.4,156,123.5z"/>
	<path id="path92_1_" inkscape:connector-curvature="0" class="st3" d="M166.1,124.6l-1.3-33.8l4,0l-1,33.6L166.1,124.6z"/>
	<path id="path84_2_" inkscape:connector-curvature="0" class="st3" d="M158.5,104c4.8-1.7,11.1-1.7,15.6,0c2.5,0.8,3.3,2.6,4.3,1.4
		c1.1-1.4,0-2.1-1.4-2.7c-8.1-3-13.2-3-21.3,0c-1.3,0.7-2.4,0.9-1.6,2.5C155.2,106.5,156.1,104.7,158.5,104z"/>
</g>
<g>
	<path class="st0" d="M204.7,41.4c0-0.5,0.3-0.9,0.8-0.9c0.4,0,0.8,0.4,0.8,0.9s-0.3,0.9-0.8,0.9C205,42.3,204.7,41.9,204.7,41.4
		 M208.6,40.8c-0.8-2.1-2.9-2.7-4.4-2.3c-0.7,0.2-1.2,0.6-1.6,1.1c-2.1,2.3-4.7,4.6-7.3,6.4c-0.2,0.1,0,0.5,0.2,0.4
		c2.7-1.1,5.4-2,8.2-2.4c0.5,0.4,1,0.8,1,1.2c0,0.2-0.1,0.9-1.5,2.2c-2.7,2.7-3.9,5.2-3.7,7.8c0.3,4.7,5.2,8.1,9.9,11.5l0.3,0.2
		l1.1,5.2l-0.8,9.2l-1.8,0c-0.4,0-0.7,0.4-0.7,0.8c0,0.4,0.3,0.8,0.7,0.8l4.1,0c0.4,0,0.7-0.4,0.7-0.8c0-0.5-0.3-0.8-0.7-0.8h-0.9
		l0.8-9.2c0-0.1,0-0.2,0-0.3l-0.8-3.7c2.6,1.9,4.9,3.8,5.7,5.8c0.3,0.7,1.1,0.6,1.3-0.1c0.2-0.5,0.2-1,0.2-1.6c0-0.7,0-1.4,0-2.2
		c-1-0.7-1.9-1.5-2.8-2.4c-1.7-1.6-3.4-3.6-4.6-5.4c-1.7-2.4-2.8-5-2.8-8.2c0-0.3,0-1.6,0.3-1.6c0.2,0,0.3,0.5,0.6,1.4
		c0.8,3.4,1.1,4.5,3.1,7.3c1.7,2.5,3.8,4.7,5.4,6.1c1.2,1,2.2,1.7,3.5,2.4c-3.9-12.8-7.8-21.6-13.3-22.2
		C209,45.5,209.4,42.7,208.6,40.8z"/>
</g>
<path class="st1" d="M232,82.6c-0.3,0-0.6,0-0.8,0.1c-0.4,0.2-0.8,0.3-1.2,0.5c0.4-0.2,0.6-1.3,0.1-1.3c-0.1,0-0.2,0-0.4,0
	c-0.5,0.2-1,0.9-1.3,0.9c-0.2,0-0.3-0.2-0.4-0.8c0-0.1-0.2-0.2-0.4-0.2c-0.5-0.1-1.1-0.1-1.7,0c-0.5,0.1-1,0.1-1.5,0.1
	c-0.5,0.1-1,0.2-1.6,0.2c-0.2,0-0.3,0-0.5,0c-0.1,0-0.2-0.1-0.3-0.2c0,0-0.3-0.7-0.3-0.7c-0.1,0-0.1-0.1-0.2-0.1
	c-0.3-0.1-0.6,0.1-0.9,0.2c-0.5,0.2-1.1,0.1-1.7,0.1c-1.3-0.1-2.6-0.2-3.9-0.4c-0.5-0.1-1-0.1-1.4-0.2c-0.2,0-0.3,0-0.5-0.1
	c-1.6-0.2-3.5-0.3-4.8-1.2c-0.3-0.2-0.8-0.7-1.3-0.6c-0.3,0-0.5,0.4-0.6,0.6c-0.2,0.3-0.2,0.3-0.6,0.2c0,0-0.1,0-0.2,0
	c-0.7-0.2-1.4-0.4-2.1-0.6c-0.3-0.1-0.5-0.2-0.8-0.3c-0.6-0.2-1.2-0.5-1.8-0.7c-0.6-0.2-1.2-0.2-1.8-0.6c-0.1-0.1-1.7-0.9-1.7-0.8
	c0,0.3,0,0.6-0.1,0.8c-1-0.2-2-0.6-3-1.1c-0.9-0.5-1.1-0.9-1.7-1.5c-0.2-0.2-0.6-0.5-1-0.5c-0.2,0-0.3,0-0.4,0.1
	c-0.4,0.4,0.6,1.6,0.3,2.2c0,0,0,0-0.1,0c-0.2,0-0.9-0.6-1.4-0.7c-0.2,0-0.4,0-0.4,0.3c-0.1,0.3,0.6,1.5,0.9,1.7
	c0.2,0.1,0.6,0.4,0.9,0.5c0,0,0,0.1,0,0.1c0.1,0.1,0.1,0.1,0.1,0.3c-0.1,0-0.2,0-0.3,0c-0.2,0-0.5-0.2-0.8-0.2c-0.1,0-0.2,0-0.3,0
	c-0.4,0.3,0.3,0.6,0.5,0.7c0.6,0.3,1,0.8,1.4,1.3c0.3,0.5,0.9,1.1,0.9,1.7c-0.1,0-0.2,0-0.4-0.1c-0.1,0-0.2,0-0.3-0.1
	c-0.1,0-0.2,0-0.3,0c-0.2,0.5,0.5,0.8,0.9,0.8c0.5,0.1,1.2,0.2,1.6,0.5c0.4,0.2,0.5,0.6,0.8,0.9c0.4,0.3,1,0.4,1.5,0.5
	c-0.1,0.2,0,0.5,0.2,0.6c0.6,0.4,1.1,0.8,1.6,1.2c0.2,0.2,0.8,0.5,0.6,0.8c-0.1,0-0.2,0-0.4,0c0,0,0,0,0,0c-0.3,0.4-0.1,0.6,0.3,0.7
	c0.3,0.1,0.8,0,1,0.1c1,0.2,1.7,0.9,2.6,1.1c0,0,0.1,0,0.1,0c0.2,0,0.3,0,0.4,0.1c0.2,0,0.5,0.1,0.7,0.2c0.5,0.2,0.9,0.5,1.4,0.6
	c0.5,0.1,1,0.2,1.5,0.3c0.4,0.1,0.7,0.1,1.1,0.2c1,0.1,1.9,0.2,2.9,0.4c2,0.3,3.9,0.4,5.9,0.2c1.1-0.1,2.2-0.2,3.3-0.4
	c0.7-0.1,1.3,0,1.9-0.2c0.3-0.1,0.6-0.2,0.9-0.2c0.1,0,0.3,0,0.4,0c0.1,0,0.3,0.1,0.4,0.1c0.1,0,0.1,0,0.2,0
	c0.7,0.1,0.8-0.4,0.3-0.5c-0.1,0-0.2,0-0.3,0c0.3-0.2,0.8-0.2,1.2-0.3c0.4-0.2,0.9-0.3,1.4-0.4c0.4-0.1,0.8-0.3,1.2-0.4
	c0.4-0.1,0.7,0,0.8-0.4c-0.1-0.1-0.2-0.1-0.3-0.1c-0.3-0.1-0.6,0.1-1,0.2c-0.1,0-0.3,0-0.5,0c-0.1,0-0.3-0.1-0.2-0.2
	c0-0.2,0.4-0.2,0.6-0.3c0.6-0.2,1.1-0.6,1.5-1c0.5-0.4,0.8-1,1.2-1.4c0.3-0.3,1.1-0.5,1.1-0.9c0-0.2-0.1-0.3-0.3-0.3
	c-0.2,0-0.5,0-0.7,0.1c-0.1,0.1-0.4,0.2-0.6,0.1c-0.1,0-0.1-0.1-0.1-0.3c0.1-0.2,0.6-0.3,0.8-0.4c0.6-0.4,0.8-0.7,1.5-0.9
	c0.1,0,0.2,0,0.3-0.1C232.6,82.9,232.3,82.7,232,82.6z"/>
<path class="st1" d="M191.8,74.6c-0.2,0-0.3,0-0.4,0.1c-0.4,0.4,0.6,1.6,0.3,2.2c0,0,0,0-0.1,0c-0.2,0-0.9-0.6-1.4-0.7
	c-0.2,0-0.4,0-0.4,0.3c-0.1,0.3,0.6,1.5,0.9,1.7c0.2,0.1,0.6,0.4,0.9,0.5c0,0,0,0.1,0,0.1c0.1,0.1,0.1,0.1,0.1,0.3
	c-0.1,0-0.2,0-0.3,0c-0.2,0-0.5-0.2-0.8-0.2c-0.1,0-0.2,0-0.3,0c-0.4,0.3,0.3,0.6,0.5,0.7c0.6,0.3,1,0.8,1.4,1.3
	c0.3,0.5,0.9,1.1,0.9,1.7c-0.1,0-0.2,0-0.4-0.1c-0.1,0-0.2,0-0.3-0.1c-0.1,0-0.2,0-0.3,0c-0.2,0.5,0.5,0.8,0.9,0.8
	c0.5,0.1,1.2,0.2,1.6,0.5c0.4,0.2,0.5,0.6,0.8,0.9c0.4,0.3,1,0.4,1.5,0.5c-0.1,0.2,0,0.5,0.2,0.6c0.6,0.4,1.1,0.8,1.6,1.2
	c0.2,0.2,0.8,0.5,0.6,0.8c-0.1,0-0.2,0-0.4,0c0,0,0,0,0,0c-0.3,0.4-0.1,0.6,0.3,0.7c0.3,0.1,0.8,0,1,0.1c1,0.2,1.7,0.9,2.6,1.1
	c0,0,0.1,0,0.1,0c0.2,0,0.3,0,0.4,0.1c0.2,0,0.5,0.1,0.7,0.2c0.5,0.2,0.9,0.5,1.4,0.6c0.2,0,0.4,0.1,0.5,0.1
	c-4.5-5.1-9.1-10.3-13.6-15.4c0,0,0,0,0,0C192.6,74.9,192.2,74.7,191.8,74.6z"/>
<path class="st0" d="M216.5,91.5c0.7-0.2,1.3-0.4,2-0.7c0.9-0.4,1.9-0.8,2.8-1.2c0.6-0.3,1.1-0.3,1.7-0.7c0.2-0.2,0.5-0.4,0.7-0.5
	c0.1,0,0.2,0,0.3,0c0.1,0,0.3,0,0.4,0c0.1,0,0.1,0,0.2,0c0.6-0.1,0.6-0.7,0.2-0.7c-0.1,0-0.1,0-0.2,0.1c0.3-0.3,0.7-0.4,1-0.6
	c0.3-0.3,0.8-0.5,1.2-0.8c0.4-0.2,0.7-0.5,1-0.8c0.3-0.2,0.6-0.2,0.6-0.7c-0.1-0.1-0.2-0.1-0.3-0.1c-0.3,0-0.5,0.3-0.8,0.4
	c-0.1,0-0.3,0.1-0.4,0.1c-0.1,0-0.2,0-0.3-0.2c0-0.2,0.3-0.4,0.5-0.5c0.5-0.4,0.8-0.9,1.1-1.5c0.3-0.6,0.5-1.4,0.8-2
	c0.2-0.4,0.9-0.9,0.8-1.4c-0.1-0.2-0.2-0.3-0.3-0.3c-0.2,0-0.5,0.2-0.6,0.3c-0.1,0.1-0.3,0.3-0.5,0.3c-0.1,0-0.1-0.1-0.1-0.3
	c0-0.2,0.5-0.5,0.6-0.7c0.4-0.6,0.5-1,1.1-1.4c0.1-0.1,0.2-0.1,0.2-0.2c0.1-0.6-0.2-0.8-0.5-0.8c-0.2,0-0.5,0.1-0.7,0.3
	c-0.3,0.3-0.7,0.5-0.9,0.8c0.3-0.4,0.3-1.6-0.2-1.6c-0.1,0-0.2,0-0.3,0.1c-0.4,0.3-0.7,1.3-1,1.3c-0.2,0-0.3-0.2-0.5-0.9
	c0-0.1-0.2-0.1-0.4-0.1c-0.5,0-1,0.2-1.5,0.4c-0.4,0.2-0.9,0.3-1.3,0.5c-0.5,0.2-0.9,0.5-1.3,0.6c-0.2,0.1-0.3,0.1-0.4,0.1
	c-0.1,0-0.2,0-0.3-0.2c0,0-0.4-0.8-0.4-0.8c-0.1,0-0.1,0-0.2,0c-0.3,0-0.5,0.3-0.8,0.5c-0.4,0.3-1,0.4-1.5,0.5
	c-1.2,0.2-2.4,0.4-3.6,0.5c-0.4,0-0.9,0.1-1.3,0.1c-0.1,0-0.3,0-0.4,0.1c-1.4,0.2-3.2,0.4-4.5-0.3c-0.3-0.2-0.9-0.6-1.3-0.4
	c-0.2,0.1-0.4,0.6-0.4,0.9c-0.1,0.4-0.1,0.4-0.5,0.4c0,0-0.1,0-0.1,0c-0.6,0-2.5-0.8-3.1-0.9C208,84.2,213.5,88.9,216.5,91.5z"/>
<path id="path42_1_" inkscape:connector-curvature="0" class="st3" d="M300.2,212.3l-13.1,0.1c-13.7,0.1-17.9-5.1-18-17.7l0-14.9
	c0-9.1,6.5-12,21.1-12l0-9.2l-20.4,0l-0.1-10.1l15.8,0c9,0,14.8,3.7,14.8,14.2L300.2,212.3z M290.2,178.1l-11.2,0l-0.1,24.7h11.2
	L290.2,178.1z"/>
<path id="path44_1_" inkscape:connector-curvature="0" class="st3" d="M369.5,178.5v-30h10v63.7l-10,0.1v-22.7h-11.2l-0.1,22.8
	l-9.8-0.1l0-63.8h10l-0.1,30L369.5,178.5z"/>
<path id="path46_1_" inkscape:connector-curvature="0" class="st3" d="M328.8,178.5v-30h10v63.7l-10,0.1v-22.7h-7
	c-10.2,0.1-14-6.7-14.1-12.7l0-28.5h10l-0.1,30L328.8,178.5z"/>
<path id="path48_1_" inkscape:connector-curvature="0" class="st3" d="M419.4,212.3l-13.1,0.1c-14.2-0.1-17.9-4.9-18-17.7l0-14.9
	c0-9.1,6.5-12,21.1-12l0-9.2l-20.4,0l-0.1-10.1l15.8,0c9,0,14.8,3.7,14.8,14.2L419.4,212.3z M409.5,178.1l-11.2,0l-0.1,24.7h11.2
	L409.5,178.1z"/>
<path id="path50_1_" inkscape:connector-curvature="0" class="st3" d="M461,148.5v63.7l-10,0.1v-24.7l-5.9,0.2
	c-5.7,0.4-6.4,11.5-9.7,24.5l-8.5,0.1c2.7-11.5,4.4-28.2,12.7-29.6c-6-2.4-10.6-7.1-10.5-16.5c0.4-12.6,6.1-17.7,15.6-17.7
	L461,148.5z M447.3,157.5c-12.5-0.1-12.7,20.1,0,20h3.8v-20.2L447.3,157.5z"/>
<path id="path52_1_" inkscape:connector-curvature="0" class="st2" d="M711.5,148.5v63.7l-10,0.1v-24.7l-5.9,0.2
	c-5.7,0.4-6.4,11.5-9.7,24.5l-8.5,0.1c2.7-11.5,3.9-27.1,12.7-29.6c-6-2.4-10.6-7.1-10.5-16.5c0.4-12.6,6.1-17.7,15.6-17.7
	L711.5,148.5z M697.4,157.5c-12.5-0.1-12.2,20.6,0.5,20.5l3.6-0.2v-20.4L697.4,157.5z"/>
<path id="path54_1_" inkscape:connector-curvature="0" class="st2" d="M661.6,158.7h-11.1l-0.2,52.4c-0.1,4.6-9.6,14.6-9.8,10.4
	l-0.1-9.1l0-49.8c0.1-7.5,7-13.8,15.5-14l5.6,0h10v63.7l-10,0.1L661.6,158.7z"/>
<path id="path56_1_" inkscape:connector-curvature="0" class="st2" d="M602.5,151.1c-0.7-2.2-4.7-2.5-13.2-2.6h-10v63.7l10,0.1
	v-53.6l11.6,0v53.6l10,0.1v-53.6H622l0.2,53.6l9.8,0l0-49.8c-0.1-7.5-7-13.9-15.5-14C612.3,148.4,607.4,149.7,602.5,151.1
	L602.5,151.1z"/>
<path id="path60_1_" inkscape:connector-curvature="0" class="st2" d="M530.7,150.1c-0.1,7.4-2.6,11.2-10.2,14.5
	c8.4,4.4,10.2,9.7,10.2,18.4l0,13.7c-0.2,8.3-7.2,15.6-16.5,15.7c-10.2-0.2-14.6-6.4-14.6-14.8V180h9.7l0,22.4h11.5l-0.1-19.4
	c0-10.1-1.3-12.9-5.7-13l-8.6,0l-0.1-10.6l14.3-0.1l-0.1-10.6l0-12.5h-11.1v12l-10,0.1v-8c0.2-6.1,2-13.8,14.1-14.3l1.5,0
	c9,0.1,15.3,4.2,15.5,14.1L530.7,150.1z"/>
<path class="st2" d="M570.4,179.7v-16.9c-0.2-6.1-2-13.7-14.1-14.2l-1.5,0c-9,0.1-15.2,4.2-15.5,14l0,34.2
	c0.2,8.2,7.2,15.5,16.5,15.6c10.2-0.2,14.5-6.4,14.6-14.7l0-6h-9.7l0,10.9h-11.5l0.1-22.8H570.4z M549.3,158.7h11.1v12.4h-11.1
	V158.7z"/>
<g>
	<path class="st3" d="M738.9,111.3c2.8-1.6,4-3.6,4-6.8l0-5.6c-0.2-5.4-4.8-8.3-13-8.4h-1.2c-7.7,0.2-11.6,3-11.9,8.5v2
		c0,0.7,0.3,1.4,0.8,1.9c0.7,0.7,1.6,1,2.6,1c0,0,0,0,0,0l2.2,0c1.9,0,3.4-1.3,3.4-3v-1.8c0-1,1.1-1.9,2.4-1.9h3.1
		c1.3,0,2.4,0.8,2.4,1.9l0,8c0,0.5-0.3,0.9-0.5,1.2c-0.5,0.5-1.1,0.7-1.9,0.7l-5.7,0c-1,0-2,0.4-2.6,1c-0.5,0.5-0.8,1.2-0.8,1.9
		l0,1.1c0,1.6,1.6,2.9,3.5,2.9l4,0c2.9,0.1,4.1,1,4,6.7l0,8.4c0,0.5-0.3,0.9-0.5,1.2c-0.5,0.5-1.1,0.7-1.9,0.7h-3.4
		c-1.3,0-2.4-0.8-2.4-1.9l0-7.6c0-1.6-1.6-3-3.5-3h-2c-1.9,0-3.5,1.3-3.5,3v7.3c0,5.5,4.5,8.7,12.3,8.8c7.5-0.1,13.6-4.1,13.8-9.3
		v-7.6c0-3.5-0.8-6.3-4.2-8.6c-0.5-0.4-0.9-0.9-0.8-1.5C738,112.2,738.3,111.6,738.9,111.3z"/>
	<path class="st3" d="M772.9,122.8c0-3.5-0.8-6.3-4.2-8.6c-0.5-0.4-0.9-0.9-0.8-1.5c0-0.6,0.4-1.1,1-1.4c2.8-1.6,4-3.6,4-6.8l0-5.6
		c-0.2-5.4-4.8-8.3-13-8.4h-1.2c-7.7,0.2-11.6,3-11.9,8.5v2c0,0.7,0.3,1.4,0.8,1.9c0.7,0.7,1.6,1,2.6,1c0,0,0,0,0,0l2.2,0
		c1.9,0,3.4-1.3,3.4-3v-1.8c0-1,1.1-1.9,2.4-1.9h3.1c1.3,0,2.4,0.8,2.4,1.9l0,8c0,0.5-0.3,0.9-0.5,1.2c-0.5,0.5-1.1,0.7-1.9,0.7
		l-5.7,0c-1,0-2,0.4-2.6,1c-0.5,0.5-0.8,1.2-0.8,1.9l0,1.1c0,1.6,1.6,2.9,3.5,2.9l4,0c2.9,0.1,4.1,1,4,6.7l0,8.4
		c0,0.5-0.3,0.9-0.5,1.2c-0.5,0.5-1.1,0.7-1.9,0.7h-3.4c-1.3,0-2.4-0.8-2.4-1.9l0-7.6c0-1.6-1.6-3-3.5-3h-2c-1.9,0-3.5,1.3-3.5,3
		v7.3c0,5.5,4.5,8.7,12.3,8.8c7.5-0.1,13.6-4.1,13.8-9.3L772.9,122.8z"/>
</g>
<path class="st3" d="M235.2,204.8c-7.7-1.3-13.7-2-18.1-2c-2.6-0.3-5.2-0.5-7.8-0.8c-7.5-0.8-22.4-1.4-43.1-1.3l0,5.5l0-5.5
	c-20.5,0-35.4,0.6-42.9,1.3c-2.6,0.3-5.2,0.5-7.7,0.8c-4.4,0-10.4,0.7-18.1,2c-16.7,2.7-12.8,6.4-5.2,14.5
	c7.7,8,14.5,16.9,20.4,15.1c5.1-1.4,1-13-2.1-18.8c-1.4-3.2,3.8-4.8,8.6-5.5c13.2-2.1,33.5-3.5,47-3.6c13.6,0.1,33.9,1.5,47.2,3.6
	c4.8,0.8,10.1,2.3,8.6,5.5c-3.1,5.8-7.2,17.3-2.1,18.8c5.9,1.8,12.8-7.1,20.5-15.1C248.1,211.2,252.1,207.5,235.2,204.8z"/>
<path class="st4" d="M240.7,109.8c-4.2-3.1-9.4-6.9-15.4-11.3c0,0-2.9-2.2-7.2-5.7c-7.8-6.3-26.5-25.2-49.9-52c-0.7-0.8-2-0.8-2.7,0
	c-0.1,0.1-0.1,0.1-0.2,0.2c0,0,0,0,0,0c-0.9,1-1.8,2-2.6,3.1c-22,24.7-39.7,42.4-47.6,48.7c-4.4,3.5-7.3,5.7-7.3,5.7
	c-6,4.3-11.2,8.1-15.5,11.3c-5.2,3.9-7.7,5.7-7.5,6.2c0.3,0.6,3.7-0.6,10-3.8c4.2-2.1,9.1-5.5,15.2-9.3c0.6,0.9,1.1,1.8,1.6,2.7
	c1.6-2.3,3.7-4.2,6.3-5.6c-0.3-0.7-0.6-1.3-0.9-2c16.5-15.5,33-31,49.4-46.5C183,67,199.5,82.5,216,98c-5.6,12.8-12,34.7-11.6,54.2
	c0.4,17.8,1.8,32.9,1,52c1.7-0.1,3.4-0.1,5.1-0.1c1.8-36.3-3.8-74.4,12.5-101.2c6.1,3.8,11,7.2,15.1,9.3c6.3,3.2,9.7,4.4,10,3.8
	C248.4,115.5,246,113.7,240.7,109.8z"/>
</svg>
