<?xml version="1.0" encoding="UTF-8" standalone="no"?>
<svg
   xmlns:dc="http://purl.org/dc/elements/1.1/"
   xmlns:cc="http://creativecommons.org/ns#"
   xmlns:rdf="http://www.w3.org/1999/02/22-rdf-syntax-ns#"
   xmlns:svg="http://www.w3.org/2000/svg"
   xmlns="http://www.w3.org/2000/svg"
   viewBox="0 0 917.45868 261.78"
   height="261.78"
   width="917.45868"
   xml:space="preserve"
   id="svg2"
   version="1.1"><metadata
     id="metadata8"><rdf:RDF><cc:Work
         rdf:about=""><dc:format>image/svg+xml</dc:format><dc:type
           rdf:resource="http://purl.org/dc/dcmitype/StillImage" /><dc:title></dc:title></cc:Work></rdf:RDF></metadata><defs
     id="defs6"><clipPath
       id="clipPath26"
       clipPathUnits="userSpaceOnUse"><path
         id="path24"
         d="M 0,196.335 H 688.094 V 0 H 0 Z" /></clipPath></defs><g
     transform="matrix(1.3333333,0,0,-1.3333333,0,261.78)"
     id="g10"><g
       transform="translate(51.5592,176.251)"
       id="g12"><path
         id="path14"
         style="fill:#995f30;fill-opacity:1;fill-rule:nonzero;stroke:none"
         d="m 0,0 h -18.718 l 2.16,-31.869 15.479,-1.382 z" /></g><g
       transform="translate(28.65,178.3164)"
       id="g16"><path
         id="path18"
         style="fill:#995f30;fill-opacity:1;fill-rule:nonzero;stroke:none"
         d="m 0,0 26.32,-0.628 1.253,9.893 -28.336,1.67 z" /></g><g
       id="g20"><g
         clip-path="url(#clipPath26)"
         id="g22"><g
           transform="translate(45.6373,163.5645)"
           id="g28"><path
             id="path30"
             style="fill:#ffffff;fill-opacity:1;fill-rule:nonzero;stroke:none"
             d="M 0,0 C -1.328,0.404 -2.75,0.269 -4.136,0.2 -6.614,0.079 -9.47,0.186 -11.948,0.292 l 0.319,-3.679 H 0.25 Z" /></g><g
           transform="translate(47.1099,165.5186)"
           id="g32"><path
             id="path34"
             style="fill:#ffffff;fill-opacity:1;fill-rule:nonzero;stroke:none"
             d="M 0,0 C -1.113,-0.29 -2.338,-0.239 -3.524,-0.205 -6,-0.135 -8.48,-0.157 -10.953,-0.271 v 3.119 l 11.522,0.22 z" /></g><g
           transform="translate(32.9742,173.0762)"
           id="g36"><path
             id="path38"
             style="fill:#ffffff;fill-opacity:1;fill-rule:nonzero;stroke:none"
             d="M 0,0 0.185,-3.203 7.675,-3.06 7.44,0.049 C 4.968,-0.065 2.722,-0.077 0.246,-0.007 0.133,-0.004 0.02,0 -0.094,0.003" /></g><g
           transform="translate(40.2945,31)"
           id="g40"><path
             id="path42"
             style="fill:#356d00;fill-opacity:1;fill-rule:nonzero;stroke:none"
             d="M 0,0 C 0.014,40.393 3.735,75.324 -10.814,107.153 7.259,122.272 24.541,138.18 40.901,155.015 59.104,137.384 77.306,120.49 95.509,107.153 80.84,78.563 83.463,41.9 82.5,-1.25 Z" /></g><g
           transform="translate(155.9039,124.877)"
           id="g44"><path
             id="path46"
             style="fill:#ff5b00;fill-opacity:1;fill-rule:nonzero;stroke:none"
             d="m 0,0 c -4.271,3.146 -9.486,6.953 -15.489,11.264 0,0 -2.925,2.196 -7.277,5.668 -7.939,6.334 -25.556,23.95 -47.594,48.691 l -2.628,3.059 c -0.001,0 -0.002,-0.001 -0.004,-0.002 -0.053,0.064 -0.107,0.13 -0.159,0.194 -0.7,0.851 -1.997,0.865 -2.723,0.038 -23.444,-26.746 -42.076,-45.708 -49.905,-51.98 -4.34,-3.477 -7.246,-5.668 -7.246,-5.668 -5.986,-4.316 -11.18,-8.124 -15.426,-11.264 -5.229,-3.868 -7.699,-5.746 -7.434,-6.202 0.323,-0.556 3.683,0.65 10.008,3.844 4.169,2.104 9.088,5.45 15.144,9.262 16.376,-26.743 10.776,-64.858 12.534,-101.164 1.696,-0.011 3.393,-0.057 5.09,-0.117 -0.758,19.101 0.601,34.181 1,52 0.434,19.443 -6.027,41.397 -11.602,54.176 16.474,15.492 32.948,30.984 49.422,46.476 15.86,-14.908 31.722,-29.816 47.582,-44.724 0.536,-0.436 1.031,-0.915 1.505,-1.414 0.119,-0.114 0.239,-0.226 0.359,-0.338 -0.007,-0.015 -0.012,-0.029 -0.018,-0.044 2.324,-2.612 3.822,-5.951 4.388,-9.469 0.861,1.562 1.751,3.104 2.682,4.618 6.081,-3.812 11.02,-7.158 15.207,-9.262 C 3.77,-5.553 7.144,-6.759 7.466,-6.202 7.73,-5.744 5.25,-3.867 0,0" /></g><g
           transform="translate(68.2203,87.25)"
           id="g48"><path
             id="path50"
             style="fill:#ffffff;fill-opacity:1;fill-rule:nonzero;stroke:none"
             d="m 0,0 0.69,-28.644 c 2.287,-2.146 3.269,-5.425 2.959,-8.554 0.294,-0.863 0.433,-1.767 0.397,-2.719 v -0.333 c 0,-1.463 -0.346,-2.831 -0.941,-4.09 0.169,-1.352 0.108,-2.738 -0.211,-4.058 0.234,-0.223 0.966,-0.97 1.132,-2.184 0.213,-1.552 -0.664,-2.666 -0.818,-2.856 3.776,0.172 7.718,0.263 11.813,0.25 3.334,-0.01 6.566,-0.089 9.687,-0.224 0.688,-0.071 1.375,-0.142 2.063,-0.213 0.638,17.306 1.277,34.611 1.916,51.917 z" /></g><g
           transform="translate(84.8736,53)"
           id="g52"><path
             id="path54"
             style="fill:#995f30;fill-opacity:1;fill-rule:nonzero;stroke:none"
             d="M 0,0 V 31.337 L 9.86,30.443 8.741,0 Z" /></g><g
           transform="translate(92.2789,33.8506)"
           id="g56"><path
             id="path58"
             style="fill:#995f30;fill-opacity:1;fill-rule:nonzero;stroke:none"
             d="M 0,0 1.182,24.143 H -7.405 C -7.397,16.135 -7.39,8.126 -7.382,0.118 -6.215,0.16 -4.991,0.175 -3.715,0.155 -2.421,0.135 -1.181,0.08 0,0" /></g><g
           transform="translate(70.9098,53)"
           id="g60"><path
             id="path62"
             style="fill:#995f30;fill-opacity:1;fill-rule:nonzero;stroke:none"
             d="M 0,0 -0.517,32.649 10.788,31.625 V 0 Z" /></g><g
           transform="translate(81.7408,34.0625)"
           id="g64"><path
             id="path66"
             style="fill:#995f30;fill-opacity:1;fill-rule:nonzero;stroke:none"
             d="m 0,0 c -0.015,7.977 -0.028,15.954 -0.043,23.931 h -10.722 c 0.11,-8.06 0.218,-16.12 0.327,-24.181 1.643,0.044 3.289,0.085 4.938,0.125 1.838,0.044 3.671,0.086 5.5,0.125" /></g><g
           transform="translate(97.1383,77.875)"
           id="g68"><path
             id="path70"
             style="fill:#ffffff;fill-opacity:1;fill-rule:nonzero;stroke:none"
             d="M 0,0 C -2.859,2.362 -7.592,5.249 -13.898,5.587 -20.934,5.952 -26.303,2.885 -28.883,1.016 l -2.494,4.707 c 3.046,2.206 9.393,5.847 17.695,5.395 C -6.23,10.72 -0.644,7.312 2.732,4.523 Z" /></g><g
           transform="translate(96.9859,79.958)"
           id="g72"><path
             id="path74"
             style="fill:#ff5b00;fill-opacity:1;fill-rule:nonzero;stroke:none"
             d="M 0,0 C -3.019,2.133 -8.015,4.739 -14.672,5.045 -22.1,5.374 -27.768,2.604 -30.491,0.917 l -2.633,4.25 c 3.215,1.992 9.915,5.28 18.681,4.872 7.866,-0.36 13.764,-3.437 17.328,-5.955 z" /></g><g
           transform="translate(70.8785,57.2969)"
           id="g76"><path
             id="path78"
             style="fill:#ffffff;fill-opacity:1;fill-rule:nonzero;stroke:none"
             d="m 0,0 c 0.799,-5.473 1.494,-13.538 0.675,-23.547 0.775,0.044 1.552,0.089 2.327,0.133 0.152,1.21 0.386,3.225 0.602,5.633 0.544,6.022 0.639,12.1 0.375,18.186 C 3.7,6.492 2.965,12.574 1.875,18.615 1.465,20.828 0.99,23.033 0.467,25.229 0.001,25.044 -0.473,24.849 -0.95,24.641 -2.652,23.901 -4.211,23.104 -5.629,22.287 -5.04,20.604 -4.475,18.911 -3.955,17.201 -1.265,8.337 -0.202,1.38 0,0" /></g><g
           transform="translate(94.8531,59.7988)"
           id="g80"><path
             id="path82"
             style="fill:#ffffff;fill-opacity:1;fill-rule:nonzero;stroke:none"
             d="m 0,0 c -3.025,0.858 -6.718,1.551 -11.059,1.68 -5.058,0.152 -9.391,-0.527 -12.72,-1.361 0.315,-1.041 0.481,-2.133 0.482,-3.23 2.941,0.844 7.071,1.629 12.019,1.487 4.763,-0.141 8.637,-1.078 11.503,-2.095 C -0.032,-2.37 -0.108,-1.176 0,0" /></g><g
           transform="translate(93.5963,81.21)"
           id="g84"><path
             id="path86"
             style="fill:#ffffff;fill-opacity:1;fill-rule:nonzero;stroke:none"
             d="m 0,0 -0.376,-4.723 c -0.435,-5.402 -0.615,-10.829 -0.771,-16.239 -0.224,-8.65 -0.175,-17.289 0.121,-25.899 0.261,-0.002 0.524,-0.005 0.784,-0.007 0.74,8.553 1.724,17.061 2.972,25.504 0.797,5.285 1.616,10.557 2.683,15.775 l 0.751,3.697 C 5.865,-1.835 5.573,-1.751 5.283,-1.658 3.151,-1.604 1.391,-0.988 0,0" /></g><g
           transform="translate(68.8785,57.2969)"
           id="g88"><path
             id="path90"
             style="fill:#ff5b00;fill-opacity:1;fill-rule:nonzero;stroke:none"
             d="m 0,0 c 0.71,-5.455 0.775,-9.97 0.883,-17.464 0.046,-3.188 0.027,-5.835 0,-7.666 0.889,0.333 1.778,0.666 2.667,1 0.007,1.462 0.02,3.668 0.054,6.349 C 3.764,-5.399 3.848,-4.388 3.633,0.286 3.354,6.373 2.965,12.574 1.875,18.615 0.978,23.452 -0.19,28.253 -1.618,32.99 -2.189,34.885 -4.247,35.9 -6.09,35.178 L -6.899,34.86 c -1.763,-0.691 -2.62,-2.701 -1.875,-4.441 1.839,-4.302 3.451,-8.715 4.819,-13.218 C -2.418,12.137 -1.081,8.3 0,0" /></g><g
           transform="translate(100.9977,90.6025)"
           id="g92"><path
             id="path94"
             style="fill:#ff5b00;fill-opacity:1;fill-rule:nonzero;stroke:none"
             d="M 0,0 C 1.736,-0.332 2.864,-2.152 2.48,-4.001 L 0.012,-15.884 c -0.533,-2.553 -1.005,-5.118 -1.443,-7.691 0,0 -0.687,-3.95 -1.24,-7.739 -1.473,-10.08 -2.412,-24.756 -2.481,-25.872 h -1.917 c 0.016,8.521 0.181,17.281 0.52,26.265 0.203,5.383 0.462,10.678 0.772,15.884 l 0.999,12.27 c 0.158,1.949 1.84,3.33 3.632,2.987 z" /></g><g
           transform="translate(76.0846,54)"
           id="g96"><path
             id="path98"
             style="fill:#ffffff;fill-opacity:1;fill-rule:nonzero;stroke:none"
             d="m 0,0 c 0,-1.11 0.9,-2.011 2.011,-2.011 1.11,0 2.01,0.901 2.01,2.011 0,1.11 -0.9,2.011 -2.01,2.011 C 0.9,2.011 0,1.11 0,0" /></g><g
           transform="translate(73.068,110.2686)"
           id="g100"><path
             id="path102"
             style="fill:#ffffff;fill-opacity:1;fill-rule:nonzero;stroke:none"
             d="M 0,0 C -0.022,10.949 -2.176,21.288 -5.526,31.287 4.101,33.902 13.489,33.664 22.642,30.574 19.562,21.823 17.668,11.78 17.204,0.178 Z" /></g><g
           transform="translate(71.4674,140.6338)"
           id="g104"><path
             id="path106"
             style="fill:#ff5b00;fill-opacity:1;fill-rule:nonzero;stroke:none"
             d="m 0,0 c 6.263,2.217 14.558,2.188 20.421,0 3.334,-1.094 4.291,-3.376 5.665,-1.771 1.487,1.887 0.014,2.75 -1.89,3.544 C 13.578,5.687 6.918,5.759 -3.604,1.774 -5.332,0.861 -6.809,0.569 -5.663,-1.545 -4.353,-3.374 -3.217,-0.981 0,0" /></g><g
           transform="translate(72.3893,110.959)"
           id="g108"><path
             id="path110"
             style="fill:#ff5b00;fill-opacity:1;fill-rule:nonzero;stroke:none"
             d="m 0,0 c -1.49,12.789 -4.328,24.761 -9.011,32.58 -0.557,1.312 0.951,2.035 1.527,2.379 0.84,0.278 2.543,0.834 3.036,-0.303 C -0.233,22.322 0.864,10.898 1.31,0.312 1.563,-1.247 0.575,-1.767 0,0" /></g><g
           transform="translate(90.9283,110.959)"
           id="g112"><path
             id="path114"
             style="fill:#ff5b00;fill-opacity:1;fill-rule:nonzero;stroke:none"
             d="M 0,0 C 1.503,12.789 4.362,24.761 9.081,32.58 9.643,33.892 8.122,34.615 7.543,34.959 6.695,35.237 4.98,35.793 4.483,34.656 0.236,22.322 -0.87,10.898 -1.318,0.312 -1.574,-1.247 -0.579,-1.767 0,0" /></g><g
           transform="translate(71.2545,111.1416)"
           id="g116"><path
             id="path118"
             style="fill:#ff5b00;fill-opacity:1;fill-rule:nonzero;stroke:none"
             d="m 0,0 c 7.413,0.468 14.574,0.952 21.435,0.312 2.346,-0.034 2.243,-3.637 0,-3.637 -6.577,0.303 -13.86,0.251 -21.538,0 C -3.217,-3.672 -3.257,0.104 0,0" /></g><g
           transform="translate(81.3424,110.0996)"
           id="g120"><path
             id="path122"
             style="fill:#ff5b00;fill-opacity:1;fill-rule:nonzero;stroke:none"
             d="M 0,0 -1.342,33.77 2.636,33.744 1.655,0.121 Z" /></g><g
           transform="translate(73.7447,130.7119)"
           id="g124"><path
             id="path126"
             style="fill:#ff5b00;fill-opacity:1;fill-rule:nonzero;stroke:none"
             d="m 0,0 c 4.788,1.694 11.129,1.672 15.612,0 2.549,-0.837 3.281,-2.581 4.33,-1.354 1.138,1.442 0.011,2.102 -1.444,2.709 C 10.381,4.347 5.289,4.402 -2.755,1.356 -4.075,0.658 -5.205,0.436 -4.329,-1.181 -3.327,-2.58 -2.458,-0.751 0,0" /></g><g
           transform="translate(123.8492,193.8916)"
           id="g128"><path
             id="path130"
             style="fill:#995f30;fill-opacity:1;fill-rule:nonzero;stroke:none"
             d="M 0,0 C -0.836,2.05 -2.886,2.734 -4.382,2.336 -5.058,2.155 -5.604,1.771 -5.981,1.237 c -2.08,-2.29 -4.663,-4.552 -7.259,-6.443 -0.174,-0.125 -0.025,-0.474 0.162,-0.394 2.653,1.133 5.369,1.98 8.165,2.441 0.502,-0.386 1.015,-0.786 1.036,-1.179 0.011,-0.223 -0.107,-0.889 -1.454,-2.241 -2.661,-2.669 -3.87,-5.218 -3.691,-7.795 0.319,-4.676 5.176,-8.148 9.875,-11.505 l 0.29,-0.207 1.129,-5.184 -0.812,-9.237 -1.837,-0.001 c -0.384,0 -0.694,-0.364 -0.694,-0.815 0,-0.448 0.311,-0.813 0.694,-0.813 l 4.127,0.001 c 0.386,0 0.696,0.364 0.696,0.814 0,0.45 -0.311,0.814 -0.696,0.814 H 2.857 l 0.81,9.214 c 0.008,0.095 0.002,0.19 -0.019,0.283 l -0.803,3.692 c 2.582,-1.903 4.905,-3.844 5.674,-5.782 0.258,-0.652 1.076,-0.615 1.283,0.068 0.152,0.491 0.219,1.031 0.245,1.578 0.034,0.73 -0.013,1.439 -0.018,2.166 -1.004,0.687 -1.895,1.529 -2.766,2.37 -1.652,1.593 -3.36,3.585 -4.627,5.428 -1.671,2.426 -2.771,5.009 -2.803,8.157 -0.003,0.257 -0.017,1.557 0.279,1.559 0.189,0.002 0.331,-0.475 0.553,-1.397 0.814,-3.392 1.114,-4.486 3.052,-7.297 1.733,-2.518 3.759,-4.665 5.381,-6.083 1.158,-1.011 2.229,-1.709 3.516,-2.357 C 8.673,-16.077 4.841,-7.345 -0.69,-6.731 0.315,-4.703 0.805,-1.968 0,0 m -3.953,-0.674 c 0,0.491 0.339,0.889 0.759,0.889 0.42,0 0.758,-0.398 0.758,-0.889 0,-0.491 -0.338,-0.888 -0.758,-0.888 -0.42,0 -0.759,0.397 -0.759,0.888" /></g><g
           transform="translate(147.1627,152.0557)"
           id="g132"><path
             id="path134"
             style="fill:#ffffff;fill-opacity:1;fill-rule:nonzero;stroke:none"
             d="m 0,0 c -0.256,0.044 -0.568,0.004 -0.813,-0.112 -0.367,-0.173 -0.804,-0.272 -1.166,-0.473 0.389,0.217 0.591,1.254 0.058,1.346 -0.093,0.016 -0.209,0.004 -0.35,-0.048 -0.498,-0.181 -0.962,-0.929 -1.303,-0.869 -0.165,0.028 -0.302,0.245 -0.4,0.807 -0.016,0.094 -0.154,0.154 -0.365,0.191 -0.53,0.091 -1.147,0.077 -1.67,0.007 C -6.519,0.781 -7.037,0.782 -7.552,0.722 -8.075,0.662 -8.577,0.521 -9.109,0.502 -9.311,0.494 -9.448,0.469 -9.566,0.489 c -0.114,0.02 -0.207,0.08 -0.321,0.236 0.01,-0.002 -0.254,0.691 -0.264,0.692 -0.06,0.035 -0.122,0.057 -0.187,0.067 -0.292,0.051 -0.619,-0.112 -0.913,-0.212 -0.533,-0.18 -1.142,-0.134 -1.726,-0.085 -1.298,0.108 -2.63,0.201 -3.926,0.369 -0.476,0.055 -0.954,0.11 -1.434,0.162 -0.157,0.016 -0.314,0.034 -0.473,0.05 -1.576,0.155 -3.516,0.344 -4.828,1.234 -0.313,0.213 -0.847,0.702 -1.275,0.628 -0.276,-0.048 -0.498,-0.413 -0.622,-0.604 -0.173,-0.262 -0.203,-0.309 -0.574,-0.246 -0.05,0.009 -0.102,0.02 -0.159,0.033 -0.702,0.167 -1.413,0.406 -2.1,0.636 -0.257,0.087 -0.514,0.173 -0.77,0.255 -0.606,0.195 -1.191,0.469 -1.796,0.655 -0.608,0.189 -1.227,0.237 -1.783,0.566 -0.133,0.079 -1.661,0.855 -1.664,0.83 -0.023,-0.278 -0.048,-0.557 -0.072,-0.835 -1.043,0.209 -2.044,0.579 -2.96,1.078 -0.861,0.47 -1.073,0.888 -1.741,1.503 -0.175,0.162 -0.624,0.457 -0.988,0.52 -0.152,0.026 -0.289,0.011 -0.385,-0.072 -0.425,-0.366 0.596,-1.593 0.318,-2.177 -0.011,-0.021 -0.034,-0.028 -0.067,-0.022 -0.222,0.038 -0.906,0.625 -1.369,0.705 -0.197,0.034 -0.354,-0.024 -0.418,-0.258 -0.095,-0.345 0.571,-1.467 0.884,-1.727 0.174,-0.144 0.635,-0.364 0.86,-0.477 0.016,-0.035 -0.013,-0.07 -0.005,-0.107 0.135,-0.082 0.114,-0.131 0.141,-0.275 -0.09,-0.046 -0.197,-0.048 -0.311,-0.029 -0.248,0.043 -0.532,0.192 -0.757,0.231 -0.11,0.019 -0.206,0.012 -0.277,-0.048 -0.369,-0.315 0.322,-0.558 0.541,-0.659 0.633,-0.291 1.039,-0.792 1.401,-1.306 0.341,-0.485 0.9,-1.15 0.909,-1.715 -0.121,0.013 -0.242,0.032 -0.363,0.053 l -0.296,0.052 c -0.098,0.017 -0.195,0.033 -0.294,0.045 -0.236,-0.465 0.526,-0.753 0.94,-0.843 0.494,-0.109 1.168,-0.192 1.593,-0.465 0.364,-0.234 0.46,-0.647 0.841,-0.882 0.448,-0.276 1.033,-0.404 1.548,-0.526 -0.123,-0.214 -0.038,-0.486 0.209,-0.627 0.625,-0.358 1.062,-0.762 1.58,-1.243 0.216,-0.201 0.772,-0.481 0.648,-0.797 -0.118,0.014 -0.239,-0.017 -0.359,0.003 -0.016,0.003 -0.033,0.007 -0.05,0.012 -0.303,-0.438 -0.066,-0.594 0.306,-0.658 0.325,-0.057 0.753,-0.043 1.026,-0.091 0.956,-0.176 1.661,-0.889 2.61,-1.072 0.044,-0.009 0.088,-0.017 0.131,-0.024 0.154,-0.027 0.299,-0.047 0.444,-0.072 0.236,-0.041 0.468,-0.093 0.722,-0.202 0.451,-0.191 0.874,-0.452 1.365,-0.552 0.485,-0.097 0.989,-0.199 1.492,-0.286 0.362,-0.062 0.725,-0.117 1.08,-0.158 0.984,-0.111 1.944,-0.214 2.932,-0.385 1.991,-0.344 3.948,-0.443 5.938,-0.217 1.097,0.124 2.184,0.203 3.277,0.367 0.674,0.101 1.288,0.026 1.933,0.187 0.282,0.071 0.56,0.217 0.879,0.224 0.124,0.002 0.253,-0.014 0.383,-0.036 0.139,-0.024 0.28,-0.055 0.421,-0.08 0.075,-0.012 0.149,-0.024 0.223,-0.03 0.717,-0.064 0.793,0.435 0.296,0.521 -0.075,0.012 -0.163,0.016 -0.263,0.007 0.322,0.167 0.807,0.154 1.171,0.294 0.431,0.167 0.919,0.269 1.383,0.356 0.444,0.082 0.802,0.278 1.242,0.385 0.394,0.095 0.684,0.037 0.815,0.418 -0.089,0.065 -0.179,0.1 -0.27,0.117 -0.317,0.055 -0.643,-0.139 -0.957,-0.181 -0.118,-0.015 -0.32,-0.033 -0.481,-0.005 -0.142,0.025 -0.252,0.084 -0.245,0.212 0.012,0.187 0.442,0.212 0.573,0.264 0.576,0.229 1.072,0.568 1.508,0.958 0.491,0.438 0.756,0.992 1.225,1.44 0.269,0.258 1.105,0.493 1.064,0.928 -0.019,0.207 -0.147,0.3 -0.315,0.329 -0.233,0.04 -0.541,-0.043 -0.741,-0.114 -0.139,-0.051 -0.408,-0.168 -0.557,-0.142 -0.095,0.017 -0.141,0.09 -0.075,0.276 0.06,0.169 0.603,0.313 0.779,0.43 0.56,0.371 0.776,0.723 1.494,0.887 0.101,0.024 0.194,0.049 0.269,0.085 C 0.628,-0.307 0.372,-0.064 0,0" /></g><g
           transform="translate(107.0211,160.0762)"
           id="g136"><path
             id="path138"
             style="fill:#ffffff;fill-opacity:1;fill-rule:nonzero;stroke:none"
             d="m 0,0 c -0.152,0.026 -0.289,0.012 -0.386,-0.071 -0.425,-0.366 0.597,-1.593 0.319,-2.176 -0.011,-0.023 -0.035,-0.029 -0.068,-0.024 -0.221,0.039 -0.905,0.625 -1.368,0.706 -0.197,0.034 -0.354,-0.025 -0.419,-0.258 -0.095,-0.345 0.571,-1.467 0.885,-1.728 0.174,-0.143 0.635,-0.363 0.859,-0.476 0.017,-0.035 -0.012,-0.071 -0.005,-0.108 0.135,-0.082 0.115,-0.131 0.142,-0.274 -0.091,-0.046 -0.197,-0.049 -0.312,-0.029 -0.248,0.042 -0.532,0.192 -0.756,0.231 -0.111,0.019 -0.206,0.012 -0.278,-0.049 -0.369,-0.314 0.323,-0.557 0.541,-0.658 0.633,-0.291 1.039,-0.792 1.402,-1.307 0.34,-0.484 0.9,-1.149 0.909,-1.715 -0.121,0.013 -0.242,0.033 -0.363,0.053 L 0.806,-7.83 C 0.708,-7.813 0.61,-7.798 0.512,-7.785 0.275,-8.251 1.038,-8.538 1.451,-8.629 1.945,-8.737 2.619,-8.82 3.045,-9.094 c 0.363,-0.233 0.46,-0.646 0.841,-0.882 0.448,-0.276 1.033,-0.404 1.548,-0.526 -0.123,-0.214 -0.038,-0.485 0.209,-0.627 0.625,-0.357 1.062,-0.762 1.58,-1.242 0.215,-0.201 0.771,-0.482 0.647,-0.798 -0.117,0.015 -0.238,-0.017 -0.358,0.004 -0.017,0.003 -0.033,0.007 -0.05,0.012 -0.304,-0.439 -0.066,-0.594 0.306,-0.659 0.325,-0.056 0.753,-0.042 1.026,-0.09 0.956,-0.176 1.66,-0.89 2.609,-1.073 0.044,-0.008 0.088,-0.016 0.131,-0.023 0.154,-0.027 0.3,-0.048 0.445,-0.072 0.236,-0.041 0.467,-0.093 0.721,-0.202 0.451,-0.192 0.874,-0.453 1.365,-0.552 0.179,-0.035 0.367,-0.069 0.549,-0.105 C 10.077,-10.798 5.539,-5.666 1.002,-0.534 0.996,-0.528 0.993,-0.524 0.987,-0.52 0.812,-0.357 0.363,-0.062 0,0" /></g><g
           transform="translate(131.7281,143.1318)"
           id="g140"><path
             id="path142"
             style="fill:#995f30;fill-opacity:1;fill-rule:nonzero;stroke:none"
             d="M 0,0 C 0.673,0.176 1.342,0.387 2.003,0.674 2.95,1.084 3.898,1.437 4.834,1.894 5.412,2.176 5.971,2.232 6.511,2.58 6.747,2.731 6.964,2.971 7.246,3.056 7.355,3.089 7.473,3.101 7.592,3.104 7.72,3.109 7.852,3.105 7.98,3.11 8.05,3.113 8.118,3.118 8.186,3.128 8.833,3.223 8.802,3.835 8.345,3.819 8.275,3.816 8.197,3.8 8.109,3.765 8.362,4.04 8.795,4.142 9.089,4.396 9.438,4.698 9.852,4.937 10.245,5.151 10.622,5.355 10.901,5.676 11.27,5.907 11.601,6.116 11.869,6.115 11.91,6.6 11.818,6.657 11.731,6.678 11.648,6.675 11.356,6.665 11.105,6.356 10.835,6.231 10.733,6.185 10.559,6.116 10.41,6.11 10.278,6.105 10.169,6.15 10.15,6.305 c -0.026,0.225 0.351,0.358 0.456,0.451 0.466,0.411 0.839,0.934 1.148,1.503 0.349,0.641 0.475,1.365 0.801,2.012 0.188,0.372 0.883,0.851 0.76,1.361 -0.057,0.242 -0.189,0.322 -0.343,0.316 -0.215,-0.008 -0.472,-0.179 -0.634,-0.313 -0.114,-0.093 -0.329,-0.297 -0.466,-0.302 -0.088,-0.003 -0.143,0.074 -0.121,0.312 0.02,0.215 0.472,0.517 0.605,0.699 0.424,0.576 0.545,1.048 1.15,1.415 0.085,0.052 0.162,0.104 0.222,0.165 0.116,0.589 -0.159,0.816 -0.5,0.804 -0.237,-0.008 -0.505,-0.131 -0.701,-0.329 -0.29,-0.294 -0.658,-0.516 -0.939,-0.842 0.303,0.351 0.277,1.637 -0.214,1.62 C 11.288,15.174 11.188,15.131 11.073,15.036 10.668,14.701 10.404,13.698 10.09,13.687 9.938,13.682 9.774,13.908 9.577,14.556 9.544,14.663 9.409,14.701 9.216,14.694 8.728,14.677 8.184,14.513 7.734,14.305 7.296,14.102 6.835,13.979 6.391,13.784 5.939,13.587 5.522,13.301 5.054,13.149 4.877,13.092 4.76,13.029 4.651,13.025 4.548,13.021 4.452,13.071 4.321,13.229 4.33,13.229 3.96,13.993 3.95,13.992 3.891,14.02 3.83,14.03 3.771,14.028 3.502,14.019 3.245,13.745 3.004,13.557 2.566,13.214 2.019,13.124 1.491,13.042 0.318,12.861 -0.88,12.653 -2.062,12.544 -2.494,12.497 -2.93,12.447 -3.364,12.395 -3.507,12.377 -3.65,12.36 -3.793,12.341 c -1.428,-0.192 -3.185,-0.428 -4.522,0.318 -0.321,0.179 -0.89,0.636 -1.255,0.445 -0.236,-0.123 -0.36,-0.612 -0.433,-0.869 -0.101,-0.354 -0.118,-0.418 -0.46,-0.43 -0.045,-0.002 -0.094,-10e-4 -0.146,10e-4 -0.611,0.03 -2.463,0.793 -3.075,0.895 C -8.474,7.321 -3.025,2.588 0,0" /></g><g
           transform="translate(205.4508,56.5859)"
           id="g144"><path
             id="path146"
             style="fill:#ff5b00;fill-opacity:1;fill-rule:nonzero;stroke:none"
             d="m 0,0 -11.161,0.001 -0.087,-24.747 H 0.001 Z m 9.955,-34.185 -13.086,-0.09 c -13.663,-0.131 -17.875,5.13 -17.967,17.732 l 0.004,14.871 C -21.119,7.4 -14.612,10.366 -0.033,10.3 l -0.043,9.223 -20.448,-0.038 -0.119,10.094 15.799,-0.039 c 8.97,0.001 14.757,-3.709 14.8,-14.177 z" /></g><g
           transform="translate(284.7252,56.1475)"
           id="g148"><path
             id="path150"
             style="fill:#ff5b00;fill-opacity:1;fill-rule:nonzero;stroke:none"
             d="m 0,0 v 29.974 h 9.954 v -63.72 L 0,-33.798 v 22.651 h -11.181 l -0.067,-22.801 -9.84,0.091 0.002,63.816 h 10.029 l -0.09,-29.96 z" /></g><g
           transform="translate(244.0406,56.1475)"
           id="g152"><path
             id="path154"
             style="fill:#ff5b00;fill-opacity:1;fill-rule:nonzero;stroke:none"
             d="m 0,0 v 29.974 h 9.954 v -63.72 L 0,-33.798 v 22.651 h -6.955 c -10.212,-0.079 -13.968,6.705 -14.132,12.655 l 0.002,28.453 h 10.029 l -0.09,-29.96 z" /></g><g
           transform="translate(324.6842,56.5859)"
           id="g156"><path
             id="path158"
             style="fill:#ff5b00;fill-opacity:1;fill-rule:nonzero;stroke:none"
             d="m 0,0 -11.161,0.001 -0.087,-24.747 H 0 Z m 9.954,-34.185 -13.086,-0.09 c -14.195,0.135 -17.874,4.864 -17.966,17.732 l 0.003,14.871 c -0.026,9.072 6.482,12.038 21.06,11.972 l -0.043,9.223 -20.448,-0.038 -0.119,10.094 15.799,-0.039 c 8.97,0.001 14.757,-3.709 14.8,-14.177 z" /></g><g
           transform="translate(362.5094,77.1904)"
           id="g160"><path
             id="path162"
             style="fill:#ff5b00;fill-opacity:1;fill-rule:nonzero;stroke:none"
             d="M 0,0 C -12.454,0.078 -12.684,-20.105 -0.017,-20.037 H 3.746 V 0.169 Z m 13.699,8.931 v -63.72 l -9.954,-0.052 v 24.733 l -5.88,-0.19 c -5.688,-0.38 -6.435,-11.549 -9.722,-24.505 l -8.515,-0.09 c 2.709,11.473 4.436,28.172 12.733,29.625 -5.961,2.397 -10.595,7.129 -10.495,16.466 0.363,12.619 6.12,17.739 15.571,17.732 z" /></g><g
           transform="translate(612.6441,77.1904)"
           id="g164"><path
             id="path166"
             style="fill:#356d00;fill-opacity:1;fill-rule:nonzero;stroke:none"
             d="m 0,0 c -12.455,0.078 -12.181,-20.608 0.484,-20.54 l 3.596,0.167 V 0.001 Z m 14.034,8.931 v -63.72 L 4.08,-54.841 v 24.733 l -5.88,-0.19 c -5.687,-0.38 -6.435,-11.549 -9.722,-24.505 l -8.515,-0.09 c 2.709,11.473 3.903,27.105 12.733,29.625 -5.961,2.397 -10.594,7.129 -10.495,16.466 0.362,12.619 6.12,17.739 15.572,17.732 z" /></g><g
           transform="translate(576.8453,75.9561)"
           id="g168"><path
             id="path170"
             style="fill:#356d00;fill-opacity:1;fill-rule:nonzero;stroke:none"
             d="m 0,0 h -11.085 l -0.163,-52.417 c -0.13,-4.624 -9.588,-14.554 -9.773,-10.355 l -0.067,9.107 0.002,49.812 c 0.09,7.493 7.01,13.787 15.482,14.014 L 0,10.165 H 9.954 V -53.554 L 0,-53.606 Z" /></g><g
           transform="translate(517.7242,83.5186)"
           id="g172"><path
             id="path174"
             style="fill:#356d00;fill-opacity:1;fill-rule:nonzero;stroke:none"
             d="m 0,0 c -0.702,2.246 -4.66,2.525 -13.194,2.603 h -9.958 v -63.72 l 9.958,-0.052 v 53.607 l 11.632,0.04 V -61.12 l 9.958,-0.052 v 53.608 h 11.091 l 0.162,-53.624 9.845,-0.038 -0.003,49.812 C 29.401,-3.922 22.479,2.52 14.003,2.6 9.825,2.765 4.862,1.457 0,0.002 Z" /></g><g
           transform="translate(445.8687,84.5781)"
           id="g176"><path
             id="path178"
             style="fill:#356d00;fill-opacity:1;fill-rule:nonzero;stroke:none"
             d="M 0,0 C -0.055,-7.432 -2.567,-11.156 -10.222,-14.54 -1.785,-18.979 -0.055,-24.261 0,-32.913 l 0.001,-13.654 c -0.209,-8.254 -7.219,-15.552 -16.498,-15.661 -10.172,0.193 -14.566,6.423 -14.608,14.818 v 17.531 h 9.718 l 0.02,-22.42 H -9.89 l -0.051,19.387 c 0.039,10.079 -1.332,12.91 -5.707,13.046 l -8.56,0.039 -0.061,10.568 14.338,0.052 -0.054,10.562 -0.038,12.474 H -21.131 V 1.876 l -9.975,-0.052 v 7.952 c 0.203,6.122 2.046,13.767 14.106,14.267 h 1.484 C -6.521,23.978 -0.26,19.842 -0.002,9.945 Z" /></g><path
           id="path180"
           style="fill:#356d00;fill-opacity:1;fill-rule:nonzero;stroke:none"
           d="m 464.503,76 h 11.129 V 63.563 h -11.129 z m 21.11,-20.99 v 16.925 c -0.202,6.086 -2.042,13.686 -14.076,14.183 l -1.482,-10e-4 C 461.08,86.052 454.831,81.941 454.574,72.104 l -0.003,-34.186 c 0.208,-8.205 7.204,-15.46 16.465,-15.568 10.15,0.191 14.535,6.385 14.577,14.73 v 6.032 h -9.698 l -0.02,-10.891 h -11.454 l 0.068,22.789 z" /><g
           transform="translate(654.1461,123.3555)"
           id="g182"><path
             id="path184"
             style="fill:#ff5b00;fill-opacity:1;fill-rule:nonzero;stroke:none"
             d="m 0,0 c 2.789,1.558 3.994,3.583 4.028,6.771 l -0.002,5.556 c -0.201,5.354 -4.819,8.325 -13.005,8.367 h -1.209 c -7.719,-0.221 -11.598,-2.987 -11.859,-8.481 v -1.998 c 0,-0.71 0.296,-1.396 0.833,-1.931 0.659,-0.657 1.617,-1.032 2.631,-1.032 h 0.015 l 2.18,0.008 c 1.903,0.007 3.45,1.336 3.45,2.963 v 1.83 c 0,1.027 1.06,1.863 2.364,1.863 h 3.101 c 1.299,0 2.36,-0.833 2.365,-1.856 L -5.063,4.075 C -5.06,3.544 -5.334,3.154 -5.564,2.922 -6.016,2.466 -6.692,2.203 -7.42,2.201 l -5.663,-0.014 c -1.02,-0.002 -1.98,-0.384 -2.636,-1.047 -0.533,-0.539 -0.824,-1.227 -0.818,-1.938 l 0.009,-1.066 c 0.012,-1.615 1.561,-2.935 3.451,-2.941 l 3.979,-0.012 c 2.878,-0.063 4.076,-1.007 4.044,-6.705 l 0.033,-8.358 c 0.001,-0.532 -0.274,-0.92 -0.505,-1.152 -0.454,-0.455 -1.132,-0.717 -1.86,-0.717 h -3.381 c -1.302,0 -2.363,0.835 -2.364,1.861 l -0.01,7.644 c -0.002,1.632 -1.556,2.96 -3.463,2.96 h -1.979 c -1.91,0 -3.464,-1.329 -3.464,-2.963 v -7.338 c 0.04,-5.48 4.513,-8.683 12.284,-8.784 7.546,0.061 13.604,4.118 13.791,9.257 v 7.595 c -0.033,3.53 -0.755,6.345 -4.173,8.612 -0.549,0.365 -0.852,0.899 -0.831,1.467 C -0.953,-0.857 -0.598,-0.333 0,0" /></g><g
           transform="translate(688.0933,111.8389)"
           id="g186"><path
             id="path188"
             style="fill:#ff5b00;fill-opacity:1;fill-rule:nonzero;stroke:none"
             d="m 0,0 c -0.032,3.528 -0.754,6.344 -4.173,8.611 -0.549,0.366 -0.851,0.9 -0.83,1.467 0.023,0.581 0.378,1.106 0.976,1.439 2.79,1.557 3.994,3.583 4.027,6.771 l -0.001,5.556 c -0.201,5.353 -4.819,8.325 -13.007,8.367 h -1.207 c -7.719,-0.222 -11.597,-2.987 -11.86,-8.482 v -1.998 c 0,-0.71 0.296,-1.395 0.833,-1.93 0.659,-0.657 1.617,-1.032 2.631,-1.032 h 0.014 l 2.182,0.007 c 1.902,0.007 3.449,1.336 3.449,2.963 v 1.83 c 0,1.028 1.061,1.864 2.363,1.864 h 3.102 c 1.299,0 2.359,-0.833 2.364,-1.857 l 0.046,-7.984 c 0.004,-0.531 -0.27,-0.92 -0.501,-1.154 -0.451,-0.456 -1.128,-0.718 -1.855,-0.72 l -5.664,-0.015 c -1.02,-0.002 -1.981,-0.385 -2.637,-1.048 -0.532,-0.539 -0.823,-1.226 -0.816,-1.936 l 0.008,-1.067 c 0.013,-1.615 1.561,-2.934 3.451,-2.94 l 3.979,-0.013 c 2.878,-0.062 4.075,-1.007 4.044,-6.705 l 0.033,-8.357 c 0.002,-0.532 -0.273,-0.92 -0.505,-1.153 -0.454,-0.455 -1.132,-0.716 -1.859,-0.716 h -3.382 c -1.302,0 -2.362,0.835 -2.364,1.861 l -0.01,7.642 c -0.001,1.633 -1.555,2.961 -3.463,2.961 h -1.979 c -1.91,0 -3.464,-1.329 -3.464,-2.962 v -7.338 c 0.041,-5.481 4.514,-8.683 12.284,-8.785 7.546,0.062 13.604,4.119 13.792,9.257 z" /></g><g
           transform="translate(150.4508,29.8438)"
           id="g190"><path
             id="path192"
             style="fill:#ff5b00;fill-opacity:1;fill-rule:nonzero;stroke:none"
             d="m 0,0 c -7.714,1.301 -13.717,2.001 -18.139,2.017 -2.592,0.259 -5.185,0.518 -7.778,0.778 -7.524,0.772 -22.437,1.363 -43.067,1.33 l -0.034,-5.501 -0.033,5.501 c -20.547,0.033 -35.395,-0.558 -42.888,-1.33 -2.582,-0.26 -5.165,-0.519 -7.747,-0.778 -4.404,-0.016 -10.381,-0.716 -18.063,-2.017 -16.746,-2.66 -12.822,-6.375 -5.176,-14.484 7.705,-8.024 14.521,-16.923 20.422,-15.125 5.134,1.449 0.994,12.994 -2.078,18.769 -1.441,3.226 3.801,4.763 8.591,5.543 13.172,2.147 33.455,3.529 46.972,3.602 13.574,-0.073 33.941,-1.455 47.168,-3.602 4.811,-0.78 10.075,-2.317 8.627,-5.543 -3.086,-5.775 -7.242,-17.32 -2.088,-18.769 5.927,-1.798 12.771,7.101 20.508,15.125 C 12.875,-6.375 16.815,-2.66 0,0" /></g><g
           transform="translate(155.9351,124.877)"
           id="g194"><path
             id="path196"
             style="fill:#fe7f18;fill-opacity:1;fill-rule:nonzero;stroke:none"
             d="m 0,0 c -4.245,3.14 -9.44,6.948 -15.425,11.264 0,0 -2.907,2.191 -7.246,5.668 -7.829,6.272 -26.461,25.234 -49.905,51.98 -0.726,0.827 -2.024,0.813 -2.723,-0.038 -0.053,-0.064 -0.106,-0.13 -0.16,-0.194 -10e-4,10e-4 -0.002,0.002 -0.004,0.002 -0.875,-1.02 -1.751,-2.039 -2.627,-3.059 -22.038,-24.741 -39.655,-42.357 -47.595,-48.691 -4.351,-3.472 -7.276,-5.668 -7.276,-5.668 -6.003,-4.311 -11.219,-8.118 -15.49,-11.264 -5.249,-3.867 -7.73,-5.744 -7.465,-6.202 0.322,-0.557 3.696,0.649 10.05,3.844 4.186,2.104 9.126,5.45 15.206,9.262 0.552,-0.896 1.088,-1.801 1.614,-2.715 1.588,2.296 3.726,4.237 6.289,5.649 -0.284,0.66 -0.569,1.317 -0.85,1.961 16.481,15.492 32.963,30.984 49.445,46.476 16.475,-15.492 32.948,-30.984 49.423,-46.476 -5.575,-12.779 -12.036,-34.733 -11.602,-54.176 0.399,-17.819 1.758,-32.899 1,-52 1.696,0.06 3.394,0.106 5.09,0.117 1.758,36.306 -3.842,74.421 12.534,101.164 6.056,-3.812 10.975,-7.158 15.144,-9.262 6.325,-3.194 9.684,-4.4 10.008,-3.844 C 7.699,-5.746 5.229,-3.868 0,0" /></g></g></g></g></svg>