<?xml version="1.0" encoding="UTF-8" standalone="no"?>
<!-- Generator: Adobe Illustrator 22.0.1, SVG Export Plug-In . SVG Version: 6.00 Build 0)  -->

<svg
   xmlns:dc="http://purl.org/dc/elements/1.1/"
   xmlns:cc="http://creativecommons.org/ns#"
   xmlns:rdf="http://www.w3.org/1999/02/22-rdf-syntax-ns#"
   xmlns:svg="http://www.w3.org/2000/svg"
   xmlns="http://www.w3.org/2000/svg"
   xmlns:sodipodi="http://sodipodi.sourceforge.net/DTD/sodipodi-0.dtd"
   xmlns:inkscape="http://www.inkscape.org/namespaces/inkscape"
   version="1.1"
   id="Capa_1"
   x="0px"
   y="0px"
   viewBox="0 0 54.999998 69.499998"
   xml:space="preserve"
   sodipodi:docname="power-cord.svg"
   inkscape:version="0.92.4 (5da689c313, 2019-01-14)"
   width="55"
   height="69.5"><metadata
   id="metadata35"><rdf:RDF><cc:Work
       rdf:about=""><dc:format>image/svg+xml</dc:format><dc:type
         rdf:resource="http://purl.org/dc/dcmitype/StillImage" /><dc:title></dc:title></cc:Work></rdf:RDF></metadata><defs
   id="defs33" /><sodipodi:namedview
   pagecolor="#ffffff"
   bordercolor="#666666"
   borderopacity="1"
   objecttolerance="10"
   gridtolerance="10"
   guidetolerance="10"
   inkscape:pageopacity="0"
   inkscape:pageshadow="2"
   inkscape:window-width="1366"
   inkscape:window-height="715"
   id="namedview31"
   showgrid="false"
   inkscape:zoom="4.547206"
   inkscape:cx="26.950001"
   inkscape:cy="43.549998"
   inkscape:window-x="-8"
   inkscape:window-y="-8"
   inkscape:window-maximized="1"
   inkscape:current-layer="Capa_1"
   fit-margin-top="0"
   fit-margin-left="0"
   fit-margin-right="0"
   fit-margin-bottom="0" />
<style
   type="text/css"
   id="style2">
	.st0{fill:#231F20;}
</style>
<g
   id="g28"
   transform="translate(0.5,8.8)"
   style="fill:#ffffff">
	<g
   id="g22"
   style="fill:#ffffff">
		<g
   id="g20"
   style="fill:#ffffff">
			<path
   class="st0"
   d="M 38.7,9 C 35.4,5.8 31,4.1 26.3,4.3 17.4,4.7 10.1,12.2 10.1,21.1 c 0,4 1.4,7.8 3.9,10.8 3.7,4.4 5.7,9.9 5.7,15.6 0,0 -0.4,2.6 1.5,2.6 h 11.7 c 1.9,0 1.5,-2.6 1.5,-2.6 0,-5.6 2,-11 5.9,-15.9 C 42.7,28.6 44,25 44,21.1 43.9,16.5 42,12.2 38.7,9 Z m -0.8,20.8 c -4.2,5.3 -6.5,11.3 -6.5,17.4 H 22.7 C 22.6,41 20.4,34.9 16.4,30 c -2.1,-2.5 -3.2,-5.7 -3.2,-8.9 0,-7.4 6,-13.6 13.4,-13.9 3.8,-0.1 7.5,1.2 10.2,3.9 2.8,2.6 4.3,6.2 4.3,10 -0.2,3.2 -1.2,6.2 -3.2,8.7 z"
   id="path4"
   inkscape:connector-curvature="0"
   style="fill:#ffffff" />
			<path
   class="st0"
   d="m 46.4,-0.7 c -0.6,-0.6 -1.5,-0.6 -2.1,0 l -3.6,3.6 c -0.6,0.6 -0.6,1.5 0,2.1 0.6,0.6 1.5,0.6 2.1,0 l 3.6,-3.6 c 0.6,-0.6 0.6,-1.5 0,-2.1 z"
   id="path6"
   inkscape:connector-curvature="0"
   style="fill:#ffffff" />
			<path
   class="st0"
   d="M 32.9,52.2 H 21.1 c -0.8,0 -1.5,0.7 -1.5,1.5 0,0.8 0.7,1.5 1.5,1.5 h 11.8 c 0.8,0 1.5,-0.7 1.5,-1.5 0,-0.9 -0.7,-1.5 -1.5,-1.5 z"
   id="path8"
   inkscape:connector-curvature="0"
   style="fill:#ffffff" />
			<path
   class="st0"
   d="m 30.7,57.7 h -7.3 c -0.8,0 -1.5,0.7 -1.5,1.5 0,0.8 0.7,1.5 1.5,1.5 h 7.3 c 0.8,0 1.5,-0.7 1.5,-1.5 -0.1,-0.8 -0.7,-1.5 -1.5,-1.5 z"
   id="path10"
   inkscape:connector-curvature="0"
   style="fill:#ffffff" />
			<path
   class="st0"
   d="m 27,-0.7 c 0.8,0 1.5,-0.7 1.5,-1.5 v -5.1 c 0,-0.8 -0.7,-1.5 -1.5,-1.5 -0.8,0 -1.5,0.7 -1.5,1.5 v 5.1 c 0,0.8 0.7,1.5 1.5,1.5 z"
   id="path12"
   inkscape:connector-curvature="0"
   style="fill:#ffffff" />
			<path
   class="st0"
   d="m 13.2,5 c 0.6,-0.6 0.6,-1.5 0,-2.1 L 9.6,-0.7 C 9,-1.3 8.1,-1.3 7.5,-0.7 6.9,-0.1 7,0.8 7.6,1.4 L 11.2,5 c 0.5,0.6 1.5,0.6 2,0 z"
   id="path14"
   inkscape:connector-curvature="0"
   style="fill:#ffffff" />
			<path
   class="st0"
   d="m 53,17.3 h -5.1 c -0.8,0 -1.5,0.7 -1.5,1.5 0,0.8 0.7,1.5 1.5,1.5 H 53 c 0.8,0 1.5,-0.7 1.5,-1.5 0,-0.8 -0.7,-1.5 -1.5,-1.5 z"
   id="path16"
   inkscape:connector-curvature="0"
   style="fill:#ffffff" />
			<path
   class="st0"
   d="M 6.1,17.3 H 1 c -0.8,0 -1.5,0.7 -1.5,1.5 0,0.8 0.7,1.5 1.5,1.5 h 5.1 c 0.8,0 1.5,-0.7 1.5,-1.5 0,-0.8 -0.7,-1.5 -1.5,-1.5 z"
   id="path18"
   inkscape:connector-curvature="0"
   style="fill:#ffffff" />
		</g>
	</g>
	<g
   id="g26"
   style="fill:#ffffff">
		<path
   d="m 25.6,33.3 c -0.2,0 -0.5,-0.1 -0.7,-0.2 -0.7,-0.4 -0.9,-1.2 -0.5,-1.9 l 4.3,-7.1 h -5.9 c -0.5,0 -0.9,-0.2 -1.2,-0.6 -0.3,-0.4 -0.3,-0.9 -0.1,-1.3 l 4.4,-8.9 c 0.3,-0.7 1.2,-1 1.8,-0.6 0.7,0.3 1,1.2 0.6,1.8 L 25,21.3 h 6.1 c 0.5,0 1,0.3 1.2,0.7 0.2,0.4 0.2,1 0,1.4 l -5.5,9.2 C 26.5,33 26,33.3 25.6,33.3 Z"
   id="path24"
   inkscape:connector-curvature="0"
   style="fill:#ffffff" />
	</g>
</g>
</svg>