<?xml version="1.0" encoding="utf-8"?>
<!-- Generator: Adobe Illustrator 22.0.1, SVG Export Plug-In . SVG Version: 6.00 Build 0)  -->
<svg version="1.1" id="Слой_1" xmlns="http://www.w3.org/2000/svg" xmlns:xlink="http://www.w3.org/1999/xlink" x="0px" y="0px"
	 viewBox="0 0 496 496" style="enable-background:new 0 0 496 496;" xml:space="preserve">
<style type="text/css">
	.st0{fill:#FE7F18;}
</style>
<path class="st0" d="M178.2,48c-29.3,0-56.9,11.4-77.7,32.2L92,88.7c-25.6,6.3-44,29.5-44,56.1V232h8c0-17.7,14.3-32,32-32v-16h2.7
	c29,0,56.8-11.5,77.3-32c20.5,20.5,48.3,32,77.3,32h2.7v16c17.7,0,32,14.3,32,32h8v-74.2C288,97.3,238.7,48,178.2,48z"/>
<path class="st0" d="M304,32h144v288H304V32z"/>
<path d="M297.7,365.5L216,338.2v-16.6c17.7-11.6,30.9-29.3,36.7-50.1c19.8-2.4,35.3-19.1,35.3-39.5c0-19.3-13.8-35.5-32-39.2V176
	h-10.7c-27.1,0-52.5-10.5-71.6-29.7l-5.7-5.7l-5.7,5.7c-19.1,19.1-44.6,29.7-71.6,29.7H80v16.8c-18.2,3.7-32,19.9-32,39.2
	c0,20.4,15.5,37.2,35.3,39.5c5.8,20.8,19,38.6,36.7,50.1v16.6l-81.7,27.2C15.4,373.1,0,394.5,0,418.6V496h336v-77.4
	C336,394.5,320.6,373.1,297.7,365.5z M272,232c0,10.5-6.9,19.4-16.3,22.6c0.2-2.2,0.3-4.4,0.3-6.6v-38.5
	C265.3,212.8,272,221.6,272,232z M64,232c0-10.4,6.7-19.2,16-22.5V248c0,2.2,0.2,4.4,0.3,6.6C70.9,251.4,64,242.5,64,232z
	 M125.8,353.2l29.6,29.6l-29.1,19.4l-5.9-47.2L125.8,353.2z M159.1,432h17.9l6,48h-29.9L159.1,432z M178.2,416h-20.5l-4.2-12.7
	l14.5-9.6l14.5,9.6L178.2,416z M180.6,382.8l29.6-29.6l5.4,1.8l-5.9,47.2L180.6,382.8z M96,248v-56.1c26.8-1.2,51.9-11.3,72-28.9
	c20.1,17.6,45.2,27.8,72,28.9V248c0,39.7-32.3,72-72,72S96,287.7,96,248z M168,336c11.3,0,22.1-2.2,32-6.1v10.8l-32,32l-32-32v-10.8
	C145.9,333.8,156.7,336,168,336z M16,418.6c0-17.2,11-32.5,27.4-37.9l61.6-20.5l8.7,69.7l26.1-17.4l4.1,12.3l-6.9,55.2H80v-48H64v48
	H16V418.6z M320,480h-48v-48h-16v48h-56.9l-6.9-55.2l4.1-12.3l26.1,17.4l8.7-69.7l61.6,20.5c16.4,5.4,27.3,20.7,27.3,37.9V480z"/>
<path d="M136,216c0,4.4-3.6,8-8,8s-8-3.6-8-8s3.6-8,8-8S136,211.6,136,216z"/>
<path d="M216,216c0,4.4-3.6,8-8,8s-8-3.6-8-8s3.6-8,8-8S216,211.6,216,216z"/>
<path d="M200,264h-16c0,8.8-7.2,16-16,16s-16-7.2-16-16h-16c0,17.6,14.4,32,32,32S200,281.6,200,264z"/>
<path d="M480,320h16v16h-16V320z"/>
<path d="M256,320h16v16h-16V320z"/>
<path d="M336,16h80v16h16V0H320v32h16V16z"/>
<path d="M336,64h16v16h-16V64z"/>
<path d="M368,64h16v16h-16V64z"/>
<path d="M400,64h16v16h-16V64z"/>
<path d="M336,96h16v16h-16V96z"/>
<path d="M368,96h16v16h-16V96z"/>
<path d="M400,96h16v16h-16V96z"/>
<path d="M336,128h16v16h-16V128z"/>
<path d="M368,128h16v16h-16V128z"/>
<path d="M400,128h16v16h-16V128z"/>
<path d="M336,160h16v16h-16V160z"/>
<path d="M368,160h16v16h-16V160z"/>
<path d="M400,160h16v16h-16V160z"/>
<path d="M416,240h-80v80h-48v16h176v-16h-48V240z M352,256h48v64h-48V256z"/>
<path d="M336,208h80v16h-80V208z"/>
</svg>
