<?xml version="1.0" encoding="UTF-8" standalone="no"?>
<!-- Generator: Adobe Illustrator 22.0.1, SVG Export Plug-In . SVG Version: 6.00 Build 0)  -->

<svg
   xmlns:dc="http://purl.org/dc/elements/1.1/"
   xmlns:cc="http://creativecommons.org/ns#"
   xmlns:rdf="http://www.w3.org/1999/02/22-rdf-syntax-ns#"
   xmlns:svg="http://www.w3.org/2000/svg"
   xmlns="http://www.w3.org/2000/svg"
   xmlns:sodipodi="http://sodipodi.sourceforge.net/DTD/sodipodi-0.dtd"
   xmlns:inkscape="http://www.inkscape.org/namespaces/inkscape"
   version="1.1"
   id="Capa_1"
   x="0px"
   y="0px"
   viewBox="0 0 560.59998 541.90002"
   xml:space="preserve"
   sodipodi:docname="washing-hand.svg"
   width="560.59998"
   height="541.90002"
   inkscape:version="0.92.4 (5da689c313, 2019-01-14)"><metadata
   id="metadata19"><rdf:RDF><cc:Work
       rdf:about=""><dc:format>image/svg+xml</dc:format><dc:type
         rdf:resource="http://purl.org/dc/dcmitype/StillImage" /><dc:title></dc:title></cc:Work></rdf:RDF></metadata><defs
   id="defs17" /><sodipodi:namedview
   pagecolor="#ffffff"
   bordercolor="#666666"
   borderopacity="1"
   objecttolerance="10"
   gridtolerance="10"
   guidetolerance="10"
   inkscape:pageopacity="0"
   inkscape:pageshadow="2"
   inkscape:window-width="640"
   inkscape:window-height="480"
   id="namedview15"
   showgrid="false"
   fit-margin-top="0"
   fit-margin-left="0"
   fit-margin-right="0"
   fit-margin-bottom="0"
   inkscape:zoom="0.4609375"
   inkscape:cx="279.7"
   inkscape:cy="364"
   inkscape:window-x="0"
   inkscape:window-y="0"
   inkscape:window-maximized="0"
   inkscape:current-layer="Capa_1" />
<g
   id="g6"
   transform="translate(23.7,-78.1)"
   style="fill:#ffffff">
	<path
   d="m 35.2,474.2 c -3.9,6.9 -38.3,67.9 -38.3,97.4 0,25.6 20.8,46.4 46.4,46.4 25.6,0 46.4,-20.8 46.4,-46.4 0,-29.4 -34.4,-90.5 -38.3,-97.4 -1.8,-2.7 -4.8,-4.3 -8,-4.3 -3.4,-0.1 -6.4,1.6 -8.2,4.3 z m 8.1,125.2 c -15.4,0 -27.8,-12.5 -27.8,-27.8 0,-16.4 16.1,-50.9 27.8,-73.3 11.7,22.4 27.8,56.9 27.8,73.3 0,15.3 -12.4,27.8 -27.8,27.8 z"
   id="path2"
   inkscape:connector-curvature="0"
   style="fill:#ffffff" />
	<path
   d="m 43.3,620 c -26.7,0 -48.5,-21.7 -48.5,-48.5 0,-29 32.1,-87.1 38.6,-98.4 l 0.1,-0.1 c 2.2,-3.3 5.8,-5.3 9.8,-5.3 4,0 7.6,2 9.8,5.3 l 0.1,0.1 c 6.4,11.3 38.6,69.4 38.6,98.4 C 91.8,598.3 70,620 43.3,620 Z M 37,475.3 C 34.3,480 25.1,496.5 16.5,515.3 5.1,540.2 -1,559.7 -1,571.5 c 0,24.4 19.9,44.3 44.3,44.3 24.4,0 44.3,-19.9 44.3,-44.3 0,-11.9 -6,-31.3 -17.5,-56.3 -8.6,-18.8 -17.8,-35.3 -20.5,-40 -1.4,-2.1 -3.7,-3.3 -6.3,-3.3 -2.5,0 -4.9,1.3 -6.3,3.4 z m 6.3,126.2 c -16.5,0 -29.9,-13.4 -29.9,-29.9 0,-18.6 19.6,-58.1 28.1,-74.3 l 1.9,-3.6 1.9,3.6 c 8.4,16.2 28.1,55.7 28.1,74.3 -0.2,16.4 -13.6,29.9 -30.1,29.9 z m 0,-98.7 c -9,17.5 -25.7,52.3 -25.7,68.7 0,14.2 11.5,25.7 25.7,25.7 14.2,0 25.7,-11.5 25.7,-25.7 0,-16.4 -16.7,-51.2 -25.7,-68.7 z"
   id="path4"
   inkscape:connector-curvature="0"
   style="fill:#ffffff" />
</g>
<g
   id="g12"
   transform="translate(23.7,-78.1)"
   style="fill:#ffffff">
	<path
   d="m 525.5,191.4 h -55.6 c -5.1,0 -9.3,4.2 -9.3,9.3 v 27.8 H 335.9 l -13.8,-48.9 c -1.1,-4 -4.8,-6.8 -8.9,-6.8 h -28.8 v -37.1 h 64.9 c 15.4,0 27.8,-12.5 27.8,-27.8 0,-15.3 -12.5,-27.8 -27.8,-27.8 H 163.8 c -15.4,0 -27.8,12.5 -27.8,27.8 0,15.3 12.5,27.8 27.8,27.8 h 64.9 v 37.1 h -28.8 c -4.2,0 -7.8,2.8 -8.9,6.8 l -13.8,48.9 H 98.9 c -66.5,0.1 -120.5,54 -120.5,120.5 v 74.2 c 0,5.1 4.2,9.3 9.3,9.3 H 98.9 c 5.1,0 9.3,-4.2 9.3,-9.3 v -37.1 c 0,-15.4 12.5,-27.8 27.8,-27.8 h 10.9 c 8.2,42.1 49.1,74.2 98.3,74.2 h 22.7 c 49.2,0 90.1,-32.1 98.3,-74.2 h 94.3 v 27.8 c 0,5.1 4.2,9.3 9.3,9.3 h 55.6 c 5.1,0 9.3,-4.2 9.3,-9.3 V 200.6 c 0,-5.1 -4.1,-9.2 -9.2,-9.2 z M 154.6,107.9 c 0,-5.1 4.2,-9.3 9.3,-9.3 h 185.4 c 5.1,0 9.3,4.2 9.3,9.3 0,5.1 -4.2,9.3 -9.3,9.3 H 163.8 c -5.1,0 -9.2,-4.2 -9.2,-9.3 z m 92.7,27.8 h 18.5 v 37.1 H 247.3 Z M 89.7,386.1 v 27.8 H -3.1 V 349 C -3,292.7 42.6,247.1 98.9,247 h 73 l -26.1,92.7 H 136 c -25.6,0.1 -46.3,20.8 -46.3,46.4 z m 178.2,27.8 h -22.7 c -44.4,0 -80.6,-31.2 -81.4,-69.9 l 43.1,-152.7 h 99.3 L 349.3,344 c -0.8,38.7 -37,69.9 -81.4,69.9 z M 367.3,339.7 341.2,247 h 119.4 v 92.7 z m 148.9,37.1 H 479.1 V 209.9 h 37.1 z"
   id="path8"
   inkscape:connector-curvature="0"
   style="fill:#ffffff" />
	<path
   d="m 267.9,434.6 h -22.7 c -49,0 -90.7,-31.1 -100.1,-74.2 H 136 c -14.2,0 -25.7,11.5 -25.7,25.7 v 37.1 c 0,6.3 -5.1,11.4 -11.4,11.4 H -12.3 c -6.3,0 -11.4,-5.1 -11.4,-11.4 V 349 C -23.6,281.5 31.4,226.4 98.9,226.4 h 76.7 L 189,179.1 c 1.4,-4.9 5.9,-8.3 11,-8.3 h 26.7 V 137.9 H 163.9 C 147.4,137.9 134,124.5 134,108 134,91.5 147.4,78.1 163.9,78.1 h 185.4 c 16.5,0 29.9,13.4 29.9,29.9 0,16.5 -13.4,29.9 -29.9,29.9 h -62.8 v 32.9 h 26.7 c 5.1,0 9.6,3.4 11,8.3 l 13.4,47.3 h 120.9 v -25.7 c 0,-6.3 5.1,-11.4 11.4,-11.4 h 55.6 c 6.3,0 11.4,5.1 11.4,11.4 v 185.4 c 0,6.3 -5.1,11.4 -11.4,11.4 h -55.6 c -6.3,0 -11.4,-5.1 -11.4,-11.4 V 360.4 H 368 c -9.4,43.1 -51.2,74.2 -100.1,74.2 z M 136,356.2 h 12.6 l 0.3,1.7 c 8.2,42 48.7,72.5 96.3,72.5 h 22.7 c 47.6,0 88.1,-30.5 96.3,-72.5 l 0.3,-1.7 h 98.1 v 29.9 c 0,4 3.2,7.2 7.2,7.2 h 55.6 c 4,0 7.2,-3.2 7.2,-7.2 V 200.6 c 0,-4 -3.2,-7.2 -7.2,-7.2 h -55.6 c -4,0 -7.2,3.2 -7.2,7.2 v 29.9 H 334.3 l -14.2,-50.4 c -0.9,-3.1 -3.7,-5.2 -6.9,-5.2 h -30.9 v -41.3 h 67 c 14.2,0 25.7,-11.5 25.7,-25.7 0,-14.2 -11.5,-25.7 -25.7,-25.7 H 163.8 c -14.2,0 -25.7,11.5 -25.7,25.7 0,14.2 11.5,25.7 25.7,25.7 h 67 v 41.3 h -30.9 c -3.2,0 -6,2.2 -6.9,5.2 l -14.2,50.4 H 98.9 C 33.7,230.6 -19.4,283.8 -19.5,349 v 74.2 c 0,4 3.2,7.2 7.2,7.2 H 98.9 c 4,0 7.2,-3.2 7.2,-7.2 v -37.1 c 0,-16.5 13.4,-29.9 29.9,-29.9 z M 267.9,416 h -22.7 c -22,0 -42.7,-7.4 -58.4,-20.9 -15.8,-13.6 -24.7,-31.7 -25.1,-51 v -0.3 l 0.1,-0.3 43.5,-154.2 h 102.5 l 43.6,154.5 v 0.3 c -0.4,19.3 -9.3,37.4 -25.1,51 -15.7,13.5 -36.5,20.9 -58.4,20.9 z m -102,-71.7 c 0.9,37.2 36.4,67.5 79.3,67.5 h 22.7 c 42.9,0 78.4,-30.2 79.3,-67.5 L 304.6,193.4 H 208.5 Z M 91.8,416 h -97 V 349 C -5.1,291.7 41.6,245 98.9,244.9 h 75.8 l -27.3,96.9 H 136 c -24.4,0 -44.2,19.9 -44.3,44.3 V 416 Z M -1,411.8 h 88.5 v -25.7 c 0,-26.7 21.8,-48.4 48.5,-48.5 h 8.2 l 25,-88.5 H 98.9 C 43.9,249.2 -0.9,294 -1,349 Z M 518.3,378.9 H 477 V 207.8 h 41.3 z m -37.1,-4.2 h 32.9 V 212 h -32.9 z m -18.6,-32.9 h -96.9 l -27.3,-96.9 h 124.3 v 96.9 z m -93.7,-4.2 h 89.5 V 249.1 H 343.9 Z m -101,-162.7 h -22.7 v -41.3 h 22.7 z m -18.5,-4.2 h 14.3 v -32.9 h -14.3 z m 99.9,-51.4 H 163.8 c -6.3,0 -11.4,-5.1 -11.4,-11.4 0,-6.3 5.1,-11.4 11.4,-11.4 h 185.4 c 6.3,0 11.4,5.1 11.4,11.4 0.1,6.3 -5,11.4 -11.3,11.4 z M 163.8,100.7 c -4,0 -7.2,3.2 -7.2,7.2 0,4 3.2,7.2 7.2,7.2 h 185.4 c 4,0 7.2,-3.2 7.2,-7.2 0,-4 -3.2,-7.2 -7.2,-7.2 z"
   id="path10"
   inkscape:connector-curvature="0"
   style="fill:#ffffff" />
</g>
</svg>